<svg width="107" height="15" viewBox="0 0 107 15" fill="none" xmlns="http://www.w3.org/2000/svg">
<path d="M0.342773 14L2.56641 1.20312L6.49512 1.21191C7.87793 1.21777 8.91504 1.51953 9.60645 2.11719C10.3037 2.70898 10.6113 3.53223 10.5293 4.58691C10.4238 5.8291 9.66504 6.76367 8.25293 7.39062C8.78027 7.57812 9.1875 7.9209 9.47461 8.41895C9.76172 8.91699 9.88477 9.51172 9.84375 10.2031C9.76172 11.375 9.29004 12.3008 8.42871 12.9805C7.57324 13.6602 6.44238 14 5.03613 14H0.342773ZM3.51562 8.22559L2.82129 12.2246L5.09766 12.2334C5.7832 12.2334 6.36621 12.0518 6.84668 11.6885C7.32715 11.3252 7.61133 10.8271 7.69922 10.1943C7.78125 9.59082 7.69043 9.11914 7.42676 8.7793C7.16309 8.43945 6.72656 8.25781 6.11719 8.23438L3.51562 8.22559ZM3.79688 6.59082L5.79199 6.59961C6.50684 6.59961 7.08984 6.42969 7.54102 6.08984C7.99219 5.75 8.25879 5.29004 8.34082 4.70996C8.4873 3.61426 7.93359 3.0459 6.67969 3.00488L4.4209 2.99609L3.79688 6.59082ZM16.9014 14C16.8311 13.7656 16.8018 13.4697 16.8135 13.1123C16.0283 13.8447 15.1816 14.1992 14.2734 14.1758C13.4473 14.1641 12.7617 13.9004 12.2168 13.3848C11.6777 12.8633 11.4258 12.2041 11.4609 11.4072C11.5078 10.4053 11.9414 9.61719 12.7617 9.04297C13.582 8.46875 14.6836 8.18164 16.0664 8.18164L17.4199 8.19922L17.543 7.54883C17.5781 7.32031 17.5781 7.10645 17.543 6.90723C17.4258 6.27441 17.0068 5.94922 16.2861 5.93164C15.8408 5.91992 15.4482 6.03418 15.1084 6.27441C14.7744 6.50879 14.5693 6.8252 14.4932 7.22363L12.4102 7.24121C12.4512 6.65527 12.6592 6.14258 13.0342 5.70312C13.4092 5.25781 13.9072 4.91211 14.5283 4.66602C15.1494 4.41992 15.8057 4.30273 16.4971 4.31445C17.5342 4.33789 18.3428 4.65137 18.9229 5.25488C19.5029 5.85254 19.7432 6.62891 19.6436 7.58398L18.9141 12.04L18.8438 12.8311C18.8262 13.1768 18.8701 13.5137 18.9756 13.8418L18.9668 14H16.9014ZM14.7568 12.4707C15.1963 12.4824 15.6035 12.3828 15.9785 12.1719C16.3535 11.9551 16.6729 11.6768 16.9365 11.3369L17.2617 9.53516L16.2686 9.52637C15.4834 9.52637 14.8564 9.67578 14.3877 9.97461C13.9189 10.2676 13.6523 10.6719 13.5879 11.1875C13.541 11.5801 13.626 11.8906 13.8428 12.1191C14.0654 12.3418 14.3701 12.459 14.7568 12.4707ZM24.3721 4.48145L24.1611 5.59766C24.9756 4.71875 25.916 4.29102 26.9824 4.31445C27.873 4.33203 28.5322 4.65137 28.96 5.27246C29.3877 5.8877 29.5459 6.74902 29.4346 7.85645L28.4062 14H26.3232L27.3604 7.83008C27.3896 7.57812 27.3926 7.34375 27.3691 7.12695C27.293 6.42969 26.877 6.07227 26.1211 6.05469C25.3301 6.04297 24.6357 6.43262 24.0381 7.22363L22.8516 14H20.7686L22.4121 4.49023L24.3721 4.48145ZM34.3916 9.93945L33.2139 10.9854L32.6953 14H30.6123L32.9502 0.5H35.0332L33.6973 8.16406L34.4268 7.4082L37.4502 4.49023H40.1133L35.8945 8.55078L38.6719 14H36.4131L34.3916 9.93945ZM52.1279 10.1768H46.0635L44.0156 14H43.4883L50.3262 1.21191L50.8975 1.20312L53.3584 14H52.8574L52.1279 10.1768ZM46.3096 9.70215H52.0312L50.5547 1.80078L46.3096 9.70215ZM58.4121 13.7012C59.2441 13.7012 59.9648 13.4639 60.5742 12.9893C61.1895 12.5146 61.5996 11.8936 61.8047 11.126H62.2793C62.0684 12.0342 61.6084 12.7695 60.8994 13.332C60.1904 13.8945 59.3643 14.1758 58.4209 14.1758C57.5479 14.1758 56.8389 13.9062 56.2939 13.3672C55.7549 12.8223 55.4297 12.0693 55.3184 11.1084C55.2539 10.5518 55.2627 9.99219 55.3447 9.42969L55.3975 9.06055C55.5498 8.12891 55.8398 7.29395 56.2676 6.55566C56.7012 5.81738 57.2227 5.26074 57.832 4.88574C58.4473 4.50488 59.124 4.31445 59.8623 4.31445C60.8174 4.31445 61.5674 4.625 62.1123 5.24609C62.6631 5.86719 62.9033 6.66113 62.833 7.62793H62.3584C62.4346 6.78418 62.2383 6.10156 61.7695 5.58008C61.3066 5.05273 60.6738 4.78906 59.8711 4.78906C58.7637 4.78906 57.8438 5.24316 57.1113 6.15137C56.3789 7.05371 55.9336 8.26367 55.7754 9.78125L55.7402 10.4229C55.7402 11.4541 55.9717 12.2598 56.4346 12.8398C56.8975 13.4141 57.5566 13.7012 58.4121 13.7012ZM67.3594 13.7012C68.1914 13.7012 68.9121 13.4639 69.5215 12.9893C70.1367 12.5146 70.5469 11.8936 70.752 11.126H71.2266C71.0156 12.0342 70.5557 12.7695 69.8467 13.332C69.1377 13.8945 68.3115 14.1758 67.3682 14.1758C66.4951 14.1758 65.7861 13.9062 65.2412 13.3672C64.7021 12.8223 64.377 12.0693 64.2656 11.1084C64.2012 10.5518 64.21 9.99219 64.292 9.42969L64.3447 9.06055C64.4971 8.12891 64.7871 7.29395 65.2148 6.55566C65.6484 5.81738 66.1699 5.26074 66.7793 4.88574C67.3945 4.50488 68.0713 4.31445 68.8096 4.31445C69.7646 4.31445 70.5146 4.625 71.0596 5.24609C71.6104 5.86719 71.8506 6.66113 71.7803 7.62793H71.3057C71.3818 6.78418 71.1855 6.10156 70.7168 5.58008C70.2539 5.05273 69.6211 4.78906 68.8184 4.78906C67.7109 4.78906 66.791 5.24316 66.0586 6.15137C65.3262 7.05371 64.8809 8.26367 64.7227 9.78125L64.6875 10.4229C64.6875 11.4541 64.9189 12.2598 65.3818 12.8398C65.8447 13.4141 66.5039 13.7012 67.3594 13.7012ZM73.2305 9.06055C73.377 8.17578 73.6729 7.37012 74.1182 6.64355C74.5635 5.91699 75.1201 5.34863 75.7881 4.93848C76.4561 4.52246 77.1855 4.31445 77.9766 4.31445C78.6211 4.31445 79.1924 4.45801 79.6904 4.74512C80.1885 5.03223 80.584 5.45996 80.877 6.02832C81.1699 6.59082 81.3369 7.21484 81.3779 7.90039C81.3955 8.29883 81.3604 8.80859 81.2725 9.42969C81.126 10.3145 80.8271 11.123 80.376 11.8555C79.9307 12.5879 79.374 13.1592 78.7061 13.5693C78.0439 13.9736 77.3203 14.1758 76.5352 14.1758C75.8848 14.1758 75.3105 14.0322 74.8125 13.7451C74.3203 13.4521 73.9248 13.0273 73.626 12.4707C73.333 11.9082 73.1689 11.2783 73.1338 10.5811C73.1104 10.1885 73.1426 9.68164 73.2305 9.06055ZM73.6436 10.9414C73.7607 11.791 74.0742 12.4648 74.584 12.9629C75.0938 13.4551 75.7412 13.7012 76.5264 13.7012C77.4463 13.7012 78.2754 13.3789 79.0137 12.7344C79.7578 12.0898 80.2939 11.2197 80.6221 10.124C80.8916 9.21582 80.9707 8.35742 80.8594 7.54883C80.7305 6.69922 80.4111 6.02832 79.9014 5.53613C79.3975 5.03809 78.7588 4.78906 77.9854 4.78906C77.0654 4.78906 76.2334 5.11719 75.4893 5.77344C74.7451 6.42383 74.209 7.28809 73.8809 8.36621C73.6113 9.2627 73.5322 10.1211 73.6436 10.9414ZM88.9629 14L89.2617 12.4619C88.8457 13.0361 88.3418 13.4668 87.75 13.7539C87.1582 14.0352 86.5078 14.1758 85.7988 14.1758C85.0605 14.1758 84.4746 13.9795 84.041 13.5869C83.6133 13.1943 83.3643 12.6348 83.2939 11.9082C83.2529 11.4453 83.2734 10.9678 83.3555 10.4756L84.3838 4.49023H84.8584L83.8125 10.5459C83.748 10.9443 83.7275 11.3311 83.751 11.7061C83.7803 12.3389 83.9707 12.8311 84.3223 13.1826C84.6738 13.5283 85.1602 13.7012 85.7812 13.7012C86.6367 13.7012 87.4072 13.4697 88.0928 13.0068C88.7783 12.5381 89.2295 11.9287 89.4463 11.1787L90.5977 4.49023H91.0811L89.4463 14H88.9629ZM94.1309 6.70508C94.6055 5.9375 95.165 5.34863 95.8096 4.93848C96.4541 4.52246 97.1191 4.31445 97.8047 4.31445C98.5312 4.31445 99.1025 4.50195 99.5186 4.87695C99.9346 5.25195 100.175 5.79395 100.239 6.50293C100.274 6.94824 100.251 7.41406 100.169 7.90039L99.1143 14H98.6396L99.6943 7.90039C99.7646 7.49023 99.7939 7.08594 99.7822 6.6875C99.7529 6.06641 99.5684 5.5918 99.2285 5.26367C98.8945 4.93555 98.4141 4.77441 97.7871 4.78027C96.9844 4.79199 96.2109 5.10547 95.4668 5.7207C94.7285 6.33008 94.2275 7.05957 93.9639 7.90918L92.9092 14H92.4346L94.0693 4.49023H94.5439L94.1309 6.70508ZM105.214 1.92383L104.774 4.49023H106.857L106.796 4.97363H104.687L103.482 11.9346L103.447 12.418C103.43 12.8164 103.512 13.1299 103.693 13.3584C103.875 13.5811 104.15 13.6953 104.52 13.7012C104.684 13.7012 105.003 13.6748 105.478 13.6221L105.495 14.0703C105.226 14.1406 104.906 14.1758 104.537 14.1758C103.541 14.1758 103.022 13.6631 102.981 12.6377C102.97 12.3389 102.99 12.0342 103.043 11.7236L104.203 4.97363H102.507L102.577 4.49023H104.291L104.73 1.92383H105.214Z" fill="black"/>
</svg>
