<svg width="48" height="48" viewBox="0 0 48 48" fill="none" xmlns="http://www.w3.org/2000/svg">
<path fill-rule="evenodd" clip-rule="evenodd" d="M39 8H9C8.73478 8 8.48043 8.10536 8.29289 8.29289C8.10536 8.48043 8 8.73478 8 9V39C8 39.2652 8.10536 39.5196 8.29289 39.7071C8.48043 39.8946 8.73478 40 9 40H39C39.2652 40 39.5196 39.8946 39.7071 39.7071C39.8946 39.5196 40 39.2652 40 39V9C40 8.73478 39.8946 8.48043 39.7071 8.29289C39.5196 8.10536 39.2652 8 39 8ZM9 6C8.20435 6 7.44129 6.31607 6.87868 6.87868C6.31607 7.44129 6 8.20435 6 9V39C6 39.7957 6.31607 40.5587 6.87868 41.1213C7.44129 41.6839 8.20435 42 9 42H39C39.7957 42 40.5587 41.6839 41.1213 41.1213C41.6839 40.5587 42 39.7957 42 39V9C42 8.20435 41.6839 7.44129 41.1213 6.87868C40.5587 6.31607 39.7957 6 39 6H9Z" fill="#C94747"/>
<path fill-rule="evenodd" clip-rule="evenodd" d="M20.489 16.3303C18.846 16.6143 17.649 18.0063 17.453 19.6623L16 32.0003H32L30.544 19.6453C30.35 17.9973 29.164 16.6083 27.53 16.3223C25.08 15.8933 23.038 15.8893 20.489 16.3303ZM21.73 20.6483C21.7562 20.3885 21.6798 20.1287 21.5171 19.9245C21.3544 19.7203 21.1182 19.5878 20.8591 19.5555C20.6 19.5231 20.3385 19.5933 20.1305 19.7512C19.9225 19.909 19.7845 20.142 19.746 20.4003L18.841 27.6383C18.8213 27.7701 18.8282 27.9046 18.8613 28.0337C18.8944 28.1629 18.9529 28.2841 19.0335 28.3903C19.1141 28.4965 19.2151 28.5855 19.3306 28.6521C19.4461 28.7187 19.5737 28.7615 19.706 28.778C19.8383 28.7945 19.9726 28.7845 20.1009 28.7484C20.2292 28.7123 20.349 28.6509 20.4533 28.5678C20.5576 28.4847 20.6441 28.3816 20.708 28.2645C20.7718 28.1475 20.8116 28.0189 20.825 27.8863L21.73 20.6483Z" fill="#C94747"/>
<path fill-rule="evenodd" clip-rule="evenodd" d="M22.474 18.0773C22.9162 18.3912 23.265 18.8191 23.4833 19.3155C23.7017 19.8119 23.7814 20.3582 23.714 20.8963L22.81 28.1343C22.716 28.8843 22.354 29.5343 21.83 30.0003H29.75L28.558 19.8793C28.456 19.0093 27.854 18.4093 27.186 18.2923C25.515 18.0003 24.076 17.9253 22.474 18.0773ZM30.544 19.6453C30.35 17.9973 29.164 16.6083 27.53 16.3223C25.08 15.8933 23.038 15.8893 20.489 16.3303C18.846 16.6143 17.649 18.0063 17.453 19.6623L16 32.0003H32L30.544 19.6453ZM21.73 20.6483L20.825 27.8863C20.8116 28.0189 20.7718 28.1475 20.708 28.2645C20.6441 28.3816 20.5576 28.4847 20.4533 28.5678C20.349 28.6509 20.2292 28.7123 20.1009 28.7484C19.9726 28.7845 19.8383 28.7945 19.706 28.778C19.5737 28.7615 19.4461 28.7187 19.3306 28.6521C19.2151 28.5855 19.1141 28.4965 19.0335 28.3903C18.9529 28.2841 18.8944 28.1629 18.8613 28.0337C18.8282 27.9046 18.8213 27.7701 18.841 27.6383L19.746 20.4003C19.7594 20.2676 19.7992 20.139 19.863 20.022C19.9269 19.9049 20.0134 19.8018 20.1177 19.7187C20.222 19.6357 20.3418 19.5743 20.4701 19.5381C20.5984 19.502 20.7327 19.492 20.865 19.5085C20.9973 19.525 21.1249 19.5678 21.2404 19.6344C21.3559 19.701 21.4569 19.79 21.5375 19.8962C21.6181 20.0024 21.6766 20.1236 21.7097 20.2528C21.7428 20.3819 21.7497 20.5164 21.73 20.6483ZM33 36.0003H15V34.0003H33V36.0003Z" fill="#C94747"/>
<path d="M13 24C13 24.337 13.015 24.67 13.045 25H10V23H13.045C13.015 23.33 13 23.663 13 24ZM15.012 17.656C14.6263 18.2017 14.2913 18.7814 14.011 19.388L11.376 17.866L12.376 16.134L15.012 17.656ZM19.387 14.01C18.778 14.293 18.199 14.629 17.657 15.012L16.134 12.376L17.866 11.376L19.387 14.011V14.01ZM24 13C23.663 13 23.33 13.015 23 13.045V10H25V13.045C24.6675 13.0151 24.3338 13 24 13ZM30.344 15.012C29.7983 14.6264 29.2186 14.2913 28.612 14.011L30.134 11.376L31.866 12.376L30.344 15.012ZM33.99 19.387C33.7093 18.7811 33.3739 18.202 32.988 17.657L35.624 16.134L36.624 17.866L33.989 19.387H33.99ZM35 24C35 23.663 34.985 23.33 34.955 23H38V25H34.955C34.985 24.67 35 24.337 35 24Z" fill="#C94747"/>
</svg>
