<svg width="179" height="214" viewBox="0 0 179 214" fill="none" xmlns="http://www.w3.org/2000/svg">
<g filter="url(#filter0_d_978_1031)">
<rect x="23" y="23" width="125" height="160" rx="10" fill="white"/>
<rect x="22" y="22" width="127" height="162" rx="11" stroke="url(#paint0_linear_978_1031)" stroke-width="2"/>
</g>
<path d="M40.4453 163.125C40.4453 162.859 40.4036 162.625 40.3203 162.422C40.2422 162.214 40.1016 162.026 39.8984 161.859C39.7005 161.693 39.4245 161.534 39.0703 161.383C38.7214 161.232 38.2786 161.078 37.7422 160.922C37.1797 160.755 36.6719 160.57 36.2188 160.367C35.7656 160.159 35.3776 159.922 35.0547 159.656C34.7318 159.391 34.4844 159.086 34.3125 158.742C34.1406 158.398 34.0547 158.005 34.0547 157.562C34.0547 157.12 34.1458 156.711 34.3281 156.336C34.5104 155.961 34.7708 155.635 35.1094 155.359C35.4531 155.078 35.862 154.859 36.3359 154.703C36.8099 154.547 37.3385 154.469 37.9219 154.469C38.776 154.469 39.5 154.633 40.0938 154.961C40.6927 155.284 41.1484 155.708 41.4609 156.234C41.7734 156.755 41.9297 157.312 41.9297 157.906H40.4297C40.4297 157.479 40.3385 157.102 40.1562 156.773C39.974 156.44 39.6979 156.18 39.3281 155.992C38.9583 155.799 38.4896 155.703 37.9219 155.703C37.3854 155.703 36.9427 155.784 36.5938 155.945C36.2448 156.107 35.9844 156.326 35.8125 156.602C35.6458 156.878 35.5625 157.193 35.5625 157.547C35.5625 157.786 35.612 158.005 35.7109 158.203C35.8151 158.396 35.974 158.576 36.1875 158.742C36.4062 158.909 36.6823 159.062 37.0156 159.203C37.3542 159.344 37.7578 159.479 38.2266 159.609C38.8724 159.792 39.4297 159.995 39.8984 160.219C40.3672 160.443 40.7526 160.695 41.0547 160.977C41.362 161.253 41.5885 161.568 41.7344 161.922C41.8854 162.271 41.9609 162.667 41.9609 163.109C41.9609 163.573 41.8672 163.992 41.6797 164.367C41.4922 164.742 41.224 165.062 40.875 165.328C40.526 165.594 40.1068 165.799 39.6172 165.945C39.1328 166.086 38.5911 166.156 37.9922 166.156C37.4661 166.156 36.9479 166.083 36.4375 165.938C35.9323 165.792 35.4714 165.573 35.0547 165.281C34.6432 164.99 34.3125 164.63 34.0625 164.203C33.8177 163.771 33.6953 163.271 33.6953 162.703H35.1953C35.1953 163.094 35.2708 163.43 35.4219 163.711C35.5729 163.987 35.7786 164.216 36.0391 164.398C36.3047 164.581 36.6042 164.716 36.9375 164.805C37.276 164.888 37.6276 164.93 37.9922 164.93C38.5182 164.93 38.9635 164.857 39.3281 164.711C39.6927 164.565 39.9688 164.357 40.1562 164.086C40.349 163.815 40.4453 163.495 40.4453 163.125ZM48.6484 164.555V160.203C48.6484 159.87 48.5807 159.581 48.4453 159.336C48.3151 159.086 48.1172 158.893 47.8516 158.758C47.5859 158.622 47.2578 158.555 46.8672 158.555C46.5026 158.555 46.1823 158.617 45.9062 158.742C45.6354 158.867 45.4219 159.031 45.2656 159.234C45.1146 159.438 45.0391 159.656 45.0391 159.891H43.5938C43.5938 159.589 43.6719 159.289 43.8281 158.992C43.9844 158.695 44.2083 158.427 44.5 158.188C44.7969 157.943 45.151 157.75 45.5625 157.609C45.9792 157.464 46.4427 157.391 46.9531 157.391C47.5677 157.391 48.1094 157.495 48.5781 157.703C49.0521 157.911 49.4219 158.227 49.6875 158.648C49.9583 159.065 50.0938 159.589 50.0938 160.219V164.156C50.0938 164.438 50.1172 164.737 50.1641 165.055C50.2161 165.372 50.2917 165.646 50.3906 165.875V166H48.8828C48.8099 165.833 48.7526 165.612 48.7109 165.336C48.6693 165.055 48.6484 164.794 48.6484 164.555ZM48.8984 160.875L48.9141 161.891H47.4531C47.0417 161.891 46.6745 161.924 46.3516 161.992C46.0286 162.055 45.7578 162.151 45.5391 162.281C45.3203 162.411 45.1536 162.576 45.0391 162.773C44.9245 162.966 44.8672 163.193 44.8672 163.453C44.8672 163.719 44.9271 163.961 45.0469 164.18C45.1667 164.398 45.3464 164.573 45.5859 164.703C45.8307 164.828 46.1302 164.891 46.4844 164.891C46.9271 164.891 47.3177 164.797 47.6562 164.609C47.9948 164.422 48.263 164.193 48.4609 163.922C48.6641 163.651 48.7734 163.388 48.7891 163.133L49.4062 163.828C49.3698 164.047 49.2708 164.289 49.1094 164.555C48.9479 164.82 48.7318 165.076 48.4609 165.32C48.1953 165.56 47.8776 165.76 47.5078 165.922C47.1432 166.078 46.7318 166.156 46.2734 166.156C45.7005 166.156 45.1979 166.044 44.7656 165.82C44.3385 165.596 44.0052 165.297 43.7656 164.922C43.5312 164.542 43.4141 164.117 43.4141 163.648C43.4141 163.195 43.5026 162.797 43.6797 162.453C43.8568 162.104 44.112 161.815 44.4453 161.586C44.7786 161.352 45.1797 161.174 45.6484 161.055C46.1172 160.935 46.6406 160.875 47.2188 160.875H48.8984ZM54.5234 166H53.0781V156.656C53.0781 156.047 53.1875 155.534 53.4062 155.117C53.6302 154.695 53.9505 154.378 54.3672 154.164C54.7839 153.945 55.2786 153.836 55.8516 153.836C56.0182 153.836 56.1849 153.846 56.3516 153.867C56.5234 153.888 56.6901 153.919 56.8516 153.961L56.7734 155.141C56.6641 155.115 56.5391 155.096 56.3984 155.086C56.263 155.076 56.1276 155.07 55.9922 155.07C55.6849 155.07 55.4193 155.133 55.1953 155.258C54.9766 155.378 54.8099 155.555 54.6953 155.789C54.5807 156.023 54.5234 156.312 54.5234 156.656V166ZM56.3203 157.547V158.656H51.7422V157.547H56.3203ZM61.25 166.156C60.6615 166.156 60.1276 166.057 59.6484 165.859C59.1745 165.656 58.7656 165.372 58.4219 165.008C58.0833 164.643 57.8229 164.211 57.6406 163.711C57.4583 163.211 57.3672 162.664 57.3672 162.07V161.742C57.3672 161.055 57.4688 160.443 57.6719 159.906C57.875 159.365 58.151 158.906 58.5 158.531C58.849 158.156 59.2448 157.872 59.6875 157.68C60.1302 157.487 60.5885 157.391 61.0625 157.391C61.6667 157.391 62.1875 157.495 62.625 157.703C63.0677 157.911 63.4297 158.203 63.7109 158.578C63.9922 158.948 64.2005 159.385 64.3359 159.891C64.4714 160.391 64.5391 160.938 64.5391 161.531V162.18H58.2266V161H63.0938V160.891C63.0729 160.516 62.9948 160.151 62.8594 159.797C62.7292 159.443 62.5208 159.151 62.2344 158.922C61.9479 158.693 61.5573 158.578 61.0625 158.578C60.7344 158.578 60.4323 158.648 60.1562 158.789C59.8802 158.924 59.6432 159.128 59.4453 159.398C59.2474 159.669 59.0938 160 58.9844 160.391C58.875 160.781 58.8203 161.232 58.8203 161.742V162.07C58.8203 162.471 58.875 162.849 58.9844 163.203C59.099 163.552 59.263 163.859 59.4766 164.125C59.6953 164.391 59.9583 164.599 60.2656 164.75C60.5781 164.901 60.9323 164.977 61.3281 164.977C61.8385 164.977 62.2708 164.872 62.625 164.664C62.9792 164.456 63.2891 164.177 63.5547 163.828L64.4297 164.523C64.2474 164.799 64.0156 165.062 63.7344 165.312C63.4531 165.562 63.1068 165.766 62.6953 165.922C62.2891 166.078 61.8073 166.156 61.25 166.156ZM69.7656 157.547V158.656H65.1953V157.547H69.7656ZM66.7422 155.492H68.1875V163.906C68.1875 164.193 68.2318 164.409 68.3203 164.555C68.4089 164.701 68.5234 164.797 68.6641 164.844C68.8047 164.891 68.9557 164.914 69.1172 164.914C69.237 164.914 69.362 164.904 69.4922 164.883C69.6276 164.857 69.7292 164.836 69.7969 164.82L69.8047 166C69.6901 166.036 69.5391 166.07 69.3516 166.102C69.1693 166.138 68.9479 166.156 68.6875 166.156C68.3333 166.156 68.0078 166.086 67.7109 165.945C67.4141 165.805 67.1771 165.57 67 165.242C66.8281 164.909 66.7422 164.461 66.7422 163.898V155.492ZM73.8359 165.125L76.1875 157.547H77.7344L74.3438 167.305C74.2656 167.513 74.1615 167.737 74.0312 167.977C73.9062 168.221 73.7448 168.453 73.5469 168.672C73.349 168.891 73.1094 169.068 72.8281 169.203C72.5521 169.344 72.2214 169.414 71.8359 169.414C71.7214 169.414 71.5755 169.398 71.3984 169.367C71.2214 169.336 71.0964 169.31 71.0234 169.289L71.0156 168.117C71.0573 168.122 71.1224 168.128 71.2109 168.133C71.3047 168.143 71.3698 168.148 71.4062 168.148C71.7344 168.148 72.013 168.104 72.2422 168.016C72.4714 167.932 72.6641 167.789 72.8203 167.586C72.9818 167.388 73.1198 167.115 73.2344 166.766L73.8359 165.125ZM72.1094 157.547L74.3047 164.109L74.6797 165.633L73.6406 166.164L70.5312 157.547H72.1094Z" fill="#5F5F5F"/>
<path d="M84.2191 113C83.9872 113 83.7571 112.959 83.5391 112.88C83.1186 112.726 82.7619 112.436 82.5262 112.055C82.2905 111.674 82.1894 111.225 82.2391 110.78L83.7791 96.6002H71.9991C71.6358 96.6007 71.2791 96.5023 70.9675 96.3154C70.6559 96.1286 70.4011 95.8604 70.2304 95.5396C70.0598 95.2188 69.9797 94.8577 69.9989 94.4948C70.018 94.132 70.1356 93.7812 70.3391 93.4802L86.1191 69.8802C86.3687 69.5109 86.7345 69.2355 87.1584 69.0978C87.5824 68.9601 88.0402 68.968 88.4591 69.1202C88.8619 69.2697 89.2058 69.545 89.4399 69.9052C89.674 70.2654 89.786 70.6914 89.7591 71.1202L88.2191 85.4002H99.9991C100.362 85.3996 100.719 85.4981 101.031 85.6849C101.342 85.8718 101.597 86.14 101.768 86.4608C101.938 86.7815 102.018 87.1427 101.999 87.5056C101.98 87.8684 101.863 88.2192 101.659 88.5202L85.8791 112.12C85.6957 112.392 85.4483 112.614 85.1589 112.767C84.8694 112.921 84.5467 113.001 84.2191 113Z" fill="#5F5F5F"/>
<defs>
<filter id="filter0_d_978_1031" x="0" y="0" width="179" height="214" filterUnits="userSpaceOnUse" color-interpolation-filters="sRGB">
<feFlood flood-opacity="0" result="BackgroundImageFix"/>
<feColorMatrix in="SourceAlpha" type="matrix" values="0 0 0 0 0 0 0 0 0 0 0 0 0 0 0 0 0 0 127 0" result="hardAlpha"/>
<feMorphology radius="5" operator="dilate" in="SourceAlpha" result="effect1_dropShadow_978_1031"/>
<feOffset dx="4" dy="4"/>
<feGaussianBlur stdDeviation="10"/>
<feComposite in2="hardAlpha" operator="out"/>
<feColorMatrix type="matrix" values="0 0 0 0 0 0 0 0 0 0 0 0 0 0 0 0 0 0 0.15 0"/>
<feBlend mode="normal" in2="BackgroundImageFix" result="effect1_dropShadow_978_1031"/>
<feBlend mode="normal" in="SourceGraphic" in2="effect1_dropShadow_978_1031" result="shape"/>
</filter>
<linearGradient id="paint0_linear_978_1031" x1="85.5" y1="23" x2="85.5" y2="183" gradientUnits="userSpaceOnUse">
<stop stop-color="#168CE1"/>
<stop offset="1" stop-color="#C94747"/>
</linearGradient>
</defs>
</svg>
