<svg width="125" height="126" viewBox="0 0 125 126" fill="none" xmlns="http://www.w3.org/2000/svg">
<path d="M53.9225 125.502C80.2162 125.502 101.531 124.134 101.531 122.446C101.531 120.758 80.2162 119.39 53.9225 119.39C27.6287 119.39 6.31348 120.758 6.31348 122.446C6.31348 124.134 27.6287 125.502 53.9225 125.502Z" fill="#42A6EA"/>
<path opacity="0.8" d="M53.9225 125.502C80.2162 125.502 101.531 124.134 101.531 122.446C101.531 120.758 80.2162 119.39 53.9225 119.39C27.6287 119.39 6.31348 120.758 6.31348 122.446C6.31348 124.134 27.6287 125.502 53.9225 125.502Z" fill="white"/>
<path d="M89.6988 6.22852H41.828C38.523 6.22852 35.8438 8.98934 35.8438 12.395V116.536C35.8438 119.942 38.523 122.703 41.828 122.703H89.6988C93.0038 122.703 95.683 119.942 95.683 116.536V12.395C95.683 8.98934 93.0038 6.22852 89.6988 6.22852Z" fill="#5F5F5F"/>
<path d="M93.0222 19.0186H38.502V109.913H93.0222V19.0186Z" fill="white" stroke="#5F5F5F" stroke-width="1.33739" stroke-miterlimit="10"/>
<path d="M74.1201 55.8246C78.7351 51.069 78.7351 43.3587 74.1201 38.6031C69.505 33.8475 62.0226 33.8475 57.4075 38.6031C52.7925 43.3587 52.7925 51.069 57.4075 55.8246C62.0226 60.5802 69.505 60.5802 74.1201 55.8246Z" fill="#42A6EA"/>
<path d="M81.2784 104.197H50.2516C50.1818 104.198 50.1125 104.184 50.0479 104.157C49.9833 104.13 49.9245 104.089 49.875 104.039C49.8255 103.988 49.7862 103.928 49.7594 103.861C49.7326 103.795 49.7188 103.724 49.7188 103.652C49.7184 103.579 49.7319 103.508 49.7585 103.441C49.7851 103.374 49.8243 103.313 49.8739 103.262C49.9235 103.211 49.9824 103.171 50.0472 103.143C50.112 103.116 50.1815 103.102 50.2516 103.103H81.2784C81.3482 103.103 81.4174 103.117 81.4819 103.144C81.5463 103.172 81.6049 103.213 81.6541 103.264C81.7033 103.315 81.7423 103.375 81.7687 103.442C81.7952 103.508 81.8086 103.58 81.8082 103.652C81.8082 103.796 81.7523 103.935 81.653 104.038C81.5537 104.14 81.4189 104.197 81.2784 104.197Z" fill="#42A6EA"/>
<path d="M82.2888 66.2363H49.2385C48.5564 66.2363 48.0034 66.8061 48.0034 67.509V71.5237C48.0034 72.2266 48.5564 72.7963 49.2385 72.7963H82.2888C82.9709 72.7963 83.5238 72.2266 83.5238 71.5237V67.509C83.5238 66.8061 82.9709 66.2363 82.2888 66.2363Z" fill="#42A6EA"/>
<path d="M82.2888 78.5059H49.2385C48.5564 78.5059 48.0034 79.0756 48.0034 79.7785V83.7932C48.0034 84.4961 48.5564 85.0659 49.2385 85.0659H82.2888C82.9709 85.0659 83.5238 84.4961 83.5238 83.7932V79.7785C83.5238 79.0756 82.9709 78.5059 82.2888 78.5059Z" fill="#42A6EA"/>
<path d="M71.6479 53.2886L68.1707 51.2257V49.5214C68.6742 48.8937 69.0389 48.1605 69.2394 47.3728C69.3591 47.4166 69.4851 47.4392 69.6121 47.4395C70.0433 47.4395 70.3174 46.0621 70.3636 45.0782C70.8656 43.9833 70.1819 43.3422 70.1819 43.3422C70.1819 43.3422 70.4652 43.0503 70.6531 41.8792C70.841 40.7081 69.9909 41.1968 69.3288 40.1241C68.6666 39.0514 68.1923 37.8835 66.0179 37.8835C65.4187 37.8632 64.8275 38.0291 64.3211 38.3596C63.8146 38.6902 63.4164 39.1701 63.1782 39.7369C62.6369 39.7389 62.0976 39.8039 61.5705 39.9305C60.9052 40.1241 60.7174 42.3679 61.2841 43.247C61.5378 43.7275 61.6731 44.2647 61.6783 44.8117C61.5274 44.6212 61.3703 44.5705 61.2841 45.0021C61.0962 45.9764 61.8539 47.3411 61.8539 47.3411L62.245 47.2268C62.4421 48.0686 62.8222 48.8533 63.3568 49.5214V51.2257L59.8796 53.2886C59.4736 53.5302 59.1363 53.8776 58.9017 54.2959C58.6671 54.7142 58.5434 55.1888 58.543 55.672V56.8526C60.611 58.4989 63.1505 59.3919 65.7638 59.3919C68.3771 59.3919 70.9165 58.4989 72.9846 56.8526V55.672C72.9848 55.1887 72.8614 54.7139 72.6267 54.2954C72.392 53.8769 72.0544 53.5297 71.6479 53.2886Z" fill="#5F5F5F"/>
<path d="M52.5032 83.4349C52.4235 83.4337 52.3473 83.4007 52.2907 83.3429C52.2604 83.3149 52.2362 83.2807 52.2198 83.2424C52.2033 83.2041 52.1949 83.1626 52.1952 83.1207C52.1962 83.0635 52.2121 83.0075 52.2414 82.9589L52.7958 82.0448L51.7148 82.0797C51.674 82.0824 51.6332 82.0761 51.595 82.0613C51.5568 82.0466 51.522 82.0236 51.493 81.9941C51.4428 81.9359 51.415 81.8608 51.415 81.783C51.415 81.7052 51.4428 81.6301 51.493 81.572C51.5214 81.5413 51.556 81.5174 51.5943 81.5021C51.6326 81.4867 51.6737 81.4802 51.7148 81.4831L52.7804 81.5243L52.2322 80.6135C52.2024 80.5639 52.1864 80.5068 52.186 80.4485C52.1857 80.4066 52.1941 80.3651 52.2105 80.3268C52.227 80.2885 52.2512 80.2542 52.2815 80.2263C52.3381 80.1684 52.4142 80.1355 52.494 80.1343C52.5465 80.1346 52.5978 80.1503 52.6419 80.1795C52.6861 80.2088 52.7213 80.2503 52.7434 80.2993L53.2701 81.28L53.7906 80.3057C53.8153 80.2537 53.8533 80.2096 53.9005 80.1783C53.9478 80.147 54.0024 80.1296 54.0586 80.1279C54.0975 80.1282 54.1359 80.1367 54.1715 80.1531C54.207 80.1695 54.2388 80.1934 54.2649 80.2231C54.3214 80.2836 54.3524 80.3646 54.3511 80.4485C54.351 80.503 54.3372 80.5565 54.3111 80.604L53.7536 81.5243L54.8347 81.4831C54.8757 81.4802 54.9169 81.4867 54.9552 81.5021C54.9935 81.5174 55.0281 81.5413 55.0564 81.572C55.1089 81.6281 55.1377 81.7034 55.1365 81.7814C55.1363 81.8601 55.1078 81.9359 55.0564 81.9941C55.0274 82.0236 54.9927 82.0466 54.9545 82.0613C54.9162 82.0761 54.8754 82.0824 54.8347 82.0797L53.7475 82.0448L54.2896 82.9493C54.3199 82.9998 54.3359 83.0581 54.3357 83.1175C54.3357 83.2017 54.3033 83.2824 54.2455 83.342C54.1878 83.4015 54.1094 83.4349 54.0278 83.4349C53.975 83.4342 53.9235 83.4176 53.8797 83.3871C53.836 83.3567 53.8018 83.3137 53.7814 83.2635L53.267 82.3114L52.7558 83.2635C52.7331 83.3133 52.6975 83.3557 52.6529 83.3859C52.6084 83.4161 52.5565 83.4331 52.5032 83.4349Z" fill="#5F5F5F"/>
<path d="M57.4985 83.4349C57.4187 83.4337 57.3426 83.4007 57.286 83.3429C57.2557 83.3149 57.2315 83.2807 57.215 83.2424C57.1985 83.2041 57.1902 83.1626 57.1905 83.1207C57.1914 83.0635 57.2074 83.0075 57.2367 82.9589L57.7911 82.0448L56.7131 82.0797C56.672 82.0817 56.6309 82.0751 56.5923 82.0604C56.5536 82.0457 56.5183 82.0231 56.4883 81.9941C56.4474 81.9506 56.4201 81.8955 56.4101 81.8358C56.4 81.7762 56.4076 81.7148 56.4319 81.6597C56.4561 81.6046 56.4959 81.5583 56.5461 81.5268C56.5962 81.4953 56.6544 81.4801 56.7131 81.4831L57.7757 81.5244L57.2274 80.6135C57.1976 80.5639 57.1816 80.5068 57.1812 80.4485C57.1809 80.4066 57.1893 80.3651 57.2058 80.3268C57.2222 80.2885 57.2464 80.2542 57.2767 80.2263C57.3333 80.1684 57.4095 80.1355 57.4892 80.1343C57.5417 80.1346 57.593 80.1503 57.6372 80.1795C57.6813 80.2088 57.7165 80.2503 57.7387 80.2993L58.2654 81.28L58.7859 80.3057C58.8106 80.2537 58.8486 80.2096 58.8958 80.1783C58.943 80.147 58.9977 80.1296 59.0538 80.1279C59.0928 80.1278 59.1314 80.1362 59.167 80.1526C59.2025 80.169 59.2343 80.1931 59.2602 80.2231C59.2887 80.2528 59.3113 80.288 59.3266 80.3266C59.3419 80.3653 59.3497 80.4067 59.3495 80.4485C59.3484 80.5033 59.3335 80.5569 59.3064 80.604L58.7489 81.5244L59.833 81.4894C59.8736 81.4866 59.9143 81.4931 59.9521 81.5085C59.9899 81.5239 60.0239 81.5477 60.0517 81.5783C60.1042 81.6345 60.133 81.7098 60.1318 81.7878C60.1316 81.8664 60.103 81.9422 60.0517 82.0004C60.0233 82.0299 59.9891 82.0528 59.9513 82.0676C59.9136 82.0824 59.8733 82.0887 59.833 82.0861L58.7427 82.0512L59.2848 82.9557C59.3152 83.0062 59.3312 83.0645 59.331 83.1239C59.331 83.2081 59.2986 83.2888 59.2408 83.3483C59.183 83.4078 59.1047 83.4413 59.023 83.4413C58.9702 83.4405 58.9188 83.4239 58.875 83.3935C58.8312 83.363 58.797 83.3201 58.7766 83.2699L58.2623 82.3178L57.751 83.2699C57.7275 83.3185 57.6915 83.3595 57.647 83.3886C57.6025 83.4177 57.5512 83.4337 57.4985 83.4349Z" fill="#5F5F5F"/>
<path d="M62.4975 83.4349C62.4167 83.4346 62.3393 83.4015 62.2819 83.3429C62.2516 83.3149 62.2274 83.2807 62.211 83.2424C62.1945 83.2041 62.1861 83.1626 62.1864 83.1207C62.1874 83.0635 62.2033 83.0075 62.2326 82.9589L62.787 82.0448L61.709 82.0797C61.651 82.0821 61.5936 82.0667 61.5441 82.0353C61.4946 82.0039 61.4553 81.9581 61.4312 81.9036C61.4071 81.8492 61.3992 81.7885 61.4087 81.7295C61.4181 81.6704 61.4444 81.6156 61.4842 81.572C61.5133 81.5414 61.5484 81.5176 61.5872 81.5023C61.626 81.487 61.6676 81.4804 61.709 81.4831L62.7716 81.5244L62.2234 80.6135C62.1936 80.5639 62.1776 80.5068 62.1772 80.4485C62.1782 80.4068 62.1871 80.3657 62.2035 80.3276C62.2199 80.2895 62.2434 80.2551 62.2727 80.2263C62.33 80.1677 62.4075 80.1346 62.4883 80.1343C62.5402 80.1352 62.5909 80.1512 62.6344 80.1804C62.678 80.2096 62.7127 80.2508 62.7346 80.2993L63.2613 81.28L63.7818 80.3057C63.8065 80.2537 63.8445 80.2096 63.8917 80.1783C63.939 80.147 63.9936 80.1296 64.0498 80.1279C64.0888 80.1278 64.1273 80.1362 64.1629 80.1526C64.1985 80.169 64.2303 80.1931 64.2561 80.2231C64.2847 80.2528 64.3072 80.288 64.3226 80.3266C64.3379 80.3653 64.3457 80.4067 64.3454 80.4485C64.3443 80.5033 64.3295 80.5569 64.3023 80.604L63.7449 81.5244L64.829 81.4831C64.8688 81.479 64.9091 81.4837 64.947 81.497C64.9849 81.5103 65.0197 81.5318 65.0489 81.56C65.078 81.5883 65.101 81.6227 65.1162 81.6609C65.1314 81.6991 65.1385 81.7402 65.137 81.7814C65.1376 81.8597 65.1102 81.9354 65.06 81.9941C65.031 82.0236 64.9962 82.0466 64.958 82.0613C64.9198 82.0761 64.879 82.0824 64.8382 82.0797L63.751 82.0448L64.29 82.9493C64.3204 82.9998 64.3364 83.0581 64.3362 83.1175C64.3352 83.1592 64.3263 83.2003 64.3099 83.2384C64.2935 83.2765 64.27 83.3109 64.2407 83.3397C64.2139 83.3694 64.1815 83.3932 64.1455 83.4095C64.1095 83.4259 64.0706 83.4345 64.0313 83.4349C63.9789 83.434 63.928 83.4172 63.8847 83.3868C63.8415 83.3563 63.8078 83.3135 63.788 83.2635L63.2706 82.3114L62.7593 83.2635C62.7362 83.315 62.6993 83.3585 62.6529 83.3889C62.6064 83.4193 62.5525 83.4353 62.4975 83.4349Z" fill="#5F5F5F"/>
<path d="M67.4931 83.4349C67.4123 83.4346 67.3349 83.4015 67.2775 83.3429C67.2195 83.2843 67.1863 83.2044 67.1851 83.1207C67.1842 83.0636 67.1991 83.0075 67.2282 82.9589L67.7826 82.0448L66.7047 82.0797C66.6635 82.0817 66.6224 82.0751 66.5838 82.0604C66.5452 82.0457 66.5098 82.0231 66.4798 81.9941C66.4296 81.9359 66.4019 81.8608 66.4019 81.783C66.4019 81.7052 66.4296 81.6301 66.4798 81.572C66.5096 81.5424 66.5448 81.5192 66.5835 81.5039C66.6221 81.4887 66.6633 81.4816 66.7047 81.4831L67.7703 81.5244L67.2252 80.6135C67.1953 80.5639 67.1793 80.5068 67.179 80.4485C67.1799 80.4068 67.1889 80.3657 67.2053 80.3276C67.2216 80.2895 67.2451 80.2551 67.2744 80.2263C67.3318 80.1677 67.4092 80.1346 67.49 80.1343C67.5425 80.1346 67.5938 80.1503 67.638 80.1795C67.6821 80.2088 67.7173 80.2503 67.7395 80.2993L68.2631 81.28L68.7836 80.3057C68.8083 80.2537 68.8463 80.2096 68.8935 80.1783C68.9408 80.147 68.9954 80.1296 69.0515 80.1279C69.0905 80.1278 69.1291 80.1362 69.1647 80.1526C69.2003 80.169 69.232 80.1931 69.2579 80.2231C69.2864 80.2528 69.309 80.288 69.3243 80.3266C69.3397 80.3653 69.3474 80.4067 69.3472 80.4485C69.3461 80.5033 69.3313 80.5569 69.3041 80.604L68.7466 81.5244L69.8307 81.4831C69.8706 81.479 69.9109 81.4837 69.9488 81.497C69.9867 81.5103 70.0214 81.5318 70.0506 81.56C70.0798 81.5883 70.1028 81.6227 70.118 81.6609C70.1332 81.6991 70.1403 81.7402 70.1387 81.7814C70.1394 81.8597 70.112 81.9354 70.0617 81.9941C70.0327 82.0236 69.998 82.0466 69.9598 82.0613C69.9215 82.0761 69.8807 82.0824 69.84 82.0797L68.7528 82.0448L69.2918 82.9493C69.3221 82.9998 69.3381 83.0581 69.338 83.1175C69.3383 83.1594 69.3299 83.2009 69.3134 83.2392C69.297 83.2775 69.2728 83.3118 69.2425 83.3397C69.2157 83.3694 69.1833 83.3932 69.1473 83.4095C69.1113 83.4259 69.0724 83.4345 69.0331 83.4349C68.9807 83.434 68.9297 83.4172 68.8865 83.3868C68.8432 83.3563 68.8096 83.3135 68.7897 83.2635L68.2723 82.3114L67.7611 83.2635C67.7376 83.316 67.6997 83.3602 67.652 83.3906C67.6044 83.4211 67.5491 83.4365 67.4931 83.4349Z" fill="#5F5F5F"/>
<path d="M72.4887 83.4349C72.4079 83.4346 72.3305 83.4015 72.2731 83.3429C72.2254 83.2931 72.195 83.2284 72.1867 83.159C72.1783 83.0895 72.1925 83.0192 72.2269 82.9589L72.7782 82.0448L71.7003 82.0797C71.6591 82.0817 71.618 82.0751 71.5794 82.0604C71.5408 82.0457 71.5054 82.0231 71.4754 81.9941C71.4252 81.9359 71.3975 81.8608 71.3975 81.783C71.3975 81.7052 71.4252 81.6301 71.4754 81.572C71.5052 81.5424 71.5404 81.5192 71.5791 81.5039C71.6177 81.4887 71.6589 81.4816 71.7003 81.4831L72.7659 81.5244L72.2177 80.6135C72.1879 80.5639 72.1719 80.5068 72.1715 80.4485C72.1726 80.3648 72.2058 80.2849 72.2639 80.2263C72.3212 80.1677 72.3987 80.1346 72.4795 80.1343C72.532 80.1346 72.5833 80.1503 72.6274 80.1795C72.6716 80.2088 72.7068 80.2503 72.7289 80.2993L73.2525 81.28L73.773 80.3057C73.7977 80.2537 73.8357 80.2096 73.883 80.1783C73.9302 80.147 73.9848 80.1296 74.041 80.1279C74.0804 80.1277 74.1195 80.1361 74.1556 80.1525C74.1916 80.1689 74.224 80.193 74.2504 80.2231C74.3069 80.2836 74.3379 80.3646 74.3366 80.4485C74.3356 80.5033 74.3207 80.5569 74.2935 80.604L73.7361 81.5244L74.8202 81.4831C74.8601 81.479 74.9003 81.4837 74.9382 81.497C74.9762 81.5103 75.0109 81.5318 75.0401 81.56C75.0693 81.5883 75.0922 81.6227 75.1074 81.6609C75.1226 81.6991 75.1297 81.7402 75.1282 81.7814C75.1288 81.8597 75.1014 81.9354 75.0512 81.9941C75.0222 82.0236 74.9874 82.0466 74.9492 82.0613C74.911 82.0761 74.8702 82.0824 74.8294 82.0797L73.7422 82.0448L74.2812 82.9493C74.3116 82.9999 74.3276 83.0581 74.3274 83.1175C74.3277 83.1594 74.3194 83.2009 74.3029 83.2392C74.2864 83.2775 74.2622 83.3118 74.2319 83.3397C74.2051 83.3694 74.1727 83.3932 74.1367 83.4095C74.1007 83.4259 74.0619 83.4346 74.0225 83.4349C73.9701 83.434 73.9192 83.4173 73.8759 83.3868C73.8327 83.3563 73.7991 83.3135 73.7792 83.2635L73.2618 82.3114L72.7505 83.2635C72.7274 83.315 72.6905 83.3585 72.6441 83.3889C72.5976 83.4193 72.5437 83.4353 72.4887 83.4349Z" fill="#5F5F5F"/>
<path d="M77.4842 83.4349C77.4044 83.4337 77.3283 83.4007 77.2716 83.3429C77.2413 83.315 77.2172 83.2807 77.2007 83.2424C77.1842 83.2041 77.1759 83.1626 77.1762 83.1207C77.1771 83.0635 77.1931 83.0075 77.2224 82.9589L77.7737 82.0448L76.6957 82.0797C76.6561 82.0828 76.6162 82.0774 76.5787 82.0637C76.5412 82.0501 76.5069 82.0286 76.4779 82.0005C76.449 81.9724 76.426 81.9385 76.4105 81.9007C76.3949 81.863 76.3872 81.8224 76.3877 81.7814C76.3875 81.7426 76.3948 81.7041 76.409 81.6682C76.4233 81.6322 76.4443 81.5995 76.4709 81.572C76.4992 81.5413 76.5338 81.5174 76.5722 81.5021C76.6105 81.4867 76.6516 81.4802 76.6926 81.4831L77.7583 81.5244L77.2101 80.6135C77.1802 80.5639 77.1642 80.5068 77.1639 80.4485C77.165 80.3648 77.1982 80.2849 77.2563 80.2263C77.3136 80.1677 77.391 80.1346 77.4718 80.1343C77.5243 80.1346 77.5756 80.1503 77.6198 80.1795C77.664 80.2088 77.6992 80.2503 77.7213 80.2993L78.2449 81.28L78.7685 80.3057C78.7929 80.2541 78.8305 80.2104 78.8771 80.1791C78.9237 80.1478 78.9777 80.1301 79.0333 80.1279C79.0728 80.1277 79.1118 80.1361 79.1479 80.1525C79.184 80.1689 79.2163 80.193 79.2428 80.2231C79.2993 80.2836 79.3303 80.3646 79.329 80.4485C79.3289 80.503 79.3151 80.5566 79.289 80.604L78.7315 81.5244L79.8126 81.4831C79.8536 81.4802 79.8947 81.4867 79.933 81.5021C79.9714 81.5174 80.0059 81.5413 80.0343 81.572C80.0868 81.6281 80.1156 81.7034 80.1144 81.7814C80.1142 81.8601 80.0857 81.9359 80.0343 81.9941C80.0053 82.0236 79.9706 82.0466 79.9323 82.0613C79.8941 82.0761 79.8533 82.0824 79.8126 82.0797L78.7254 82.0448L79.2643 82.9493C79.2947 82.9999 79.3107 83.0581 79.3105 83.1175C79.3094 83.2013 79.2762 83.2811 79.2181 83.3397C79.162 83.3987 79.0858 83.4329 79.0056 83.4349C78.9533 83.434 78.9023 83.4173 78.8591 83.3868C78.8158 83.3563 78.7822 83.3135 78.7623 83.2635L78.2449 82.3114L77.7336 83.2635C77.7115 83.3131 77.6764 83.3553 77.6324 83.3856C77.5884 83.4158 77.5371 83.4329 77.4842 83.4349Z" fill="#5F5F5F"/>
<g style="mix-blend-mode:multiply">
<path d="M93.0222 19.1396H38.502V22.6593H93.0222V19.1396Z" fill="#42A6EA"/>
</g>
<path d="M71.6909 12.6552H59.8333C59.6193 12.6552 59.414 12.5676 59.2627 12.4117C59.1114 12.2557 59.0264 12.0442 59.0264 11.8237C59.0264 11.6032 59.1114 11.3917 59.2627 11.2357C59.414 11.0798 59.6193 10.9922 59.8333 10.9922H71.6909C71.9049 10.9922 72.1101 11.0798 72.2615 11.2357C72.4128 11.3917 72.4978 11.6032 72.4978 11.8237C72.4978 12.0442 72.4128 12.2557 72.2615 12.4117C72.1101 12.5676 71.9049 12.6552 71.6909 12.6552Z" fill="#42A6EA" stroke="#5F5F5F" stroke-width="1.33739" stroke-linecap="round" stroke-linejoin="round"/>
<path d="M68.9961 115.048C68.9967 114.389 68.8075 113.744 68.4524 113.196C68.0973 112.647 67.5922 112.22 67.0012 111.967C66.4101 111.715 65.7597 111.648 65.1321 111.777C64.5045 111.905 63.928 112.223 63.4755 112.689C63.0231 113.155 62.715 113.749 62.5903 114.396C62.4656 115.043 62.5299 115.713 62.7751 116.322C63.0202 116.931 63.4352 117.451 63.9675 117.817C64.4998 118.183 65.1254 118.378 65.7653 118.378C66.6219 118.377 67.4432 118.026 68.0489 117.402C68.6546 116.777 68.9953 115.931 68.9961 115.048Z" fill="#42A6EA"/>
<path d="M67.404 113.359H64.127V116.736H67.404V113.359Z" fill="#42A6EA" stroke="#5F5F5F" stroke-width="1.33739" stroke-linecap="round" stroke-linejoin="round"/>
<path d="M104.8 76.7282C104.8 76.7282 100.506 65.487 104.329 64.1509C108.308 62.7577 108.132 70.1809 107.978 73.7989C107.655 81.53 106.826 82.9677 106.207 81.0794L104.8 76.7282ZM103.509 85.4971C104.689 87.084 105.022 85.44 102.893 78.0167C101.895 74.5257 99.7272 67.4642 96.4009 70.1143C93.2071 72.6532 100.808 81.8569 100.808 81.8569L103.509 85.4971ZM101.23 91.9397C102.354 92.968 102.376 91.6699 99.7056 86.3096C98.4521 83.7992 95.8003 78.7181 93.629 81.2317C91.5439 83.6564 98.6492 89.5499 98.6492 89.5499L101.23 91.9397ZM98.7663 99.601C99.8904 100.632 99.912 99.3312 97.2417 93.974C95.9882 91.4636 93.3364 86.3794 91.1651 88.8961C89.0923 91.3272 96.1761 97.2207 96.1761 97.2207L98.7663 99.601ZM105.881 84.0055C104.082 84.7291 105.511 85.5162 113.023 85.4939C116.547 85.4939 123.741 85.3289 122.207 81.2952C120.738 77.4201 110.039 82.3552 110.039 82.3552L105.881 84.0055ZM103.833 89.1596C101.929 89.4991 103.18 90.5655 110.547 92.0825C113.999 92.7966 121.08 94.1137 120.356 89.8609C119.663 85.7605 108.225 88.4074 108.225 88.4074L103.833 89.1596ZM101.541 95.453C99.9212 95.6942 100.956 96.6241 107.15 98.084C110.054 98.7695 116.014 100.055 115.496 96.4273C115.003 92.9362 105.271 94.9103 105.271 94.9103L101.541 95.453ZM99.8011 101.283C98.215 101.699 99.3391 102.511 105.653 103.286C108.61 103.647 114.668 104.276 113.784 100.724C112.931 97.3159 103.457 100.334 103.457 100.334L99.8011 101.283ZM109.084 77.6803C108.16 79.8131 110.079 79.4893 116.602 73.6244C119.657 70.8728 125.786 65.1157 120.932 62.2499C116.272 59.4951 111.261 72.7865 111.261 72.7865L109.084 77.6803ZM100.041 108.878C99.065 109.465 100.023 109.693 104.501 108.773C106.602 108.344 110.873 107.392 109.429 105.514C108.031 103.705 102.302 107.513 102.302 107.513L100.041 108.878Z" fill="#42A6EA"/>
<path opacity="0.3" d="M104.8 76.7282C104.8 76.7282 100.506 65.487 104.329 64.1509C108.308 62.7577 108.132 70.1809 107.978 73.7989C107.655 81.53 106.826 82.9677 106.207 81.0794L104.8 76.7282ZM103.509 85.4971C104.689 87.084 105.022 85.44 102.893 78.0167C101.895 74.5257 99.7272 67.4642 96.4009 70.1143C93.2071 72.6532 100.808 81.8569 100.808 81.8569L103.509 85.4971ZM101.23 91.9397C102.354 92.968 102.376 91.6699 99.7056 86.3096C98.4521 83.7992 95.8003 78.7181 93.629 81.2317C91.5439 83.6564 98.6492 89.5499 98.6492 89.5499L101.23 91.9397ZM98.7663 99.601C99.8904 100.632 99.912 99.3312 97.2417 93.974C95.9882 91.4636 93.3364 86.3794 91.1651 88.8961C89.0923 91.3272 96.1761 97.2207 96.1761 97.2207L98.7663 99.601ZM105.881 84.0055C104.082 84.7291 105.511 85.5162 113.023 85.4939C116.547 85.4939 123.741 85.3289 122.207 81.2952C120.738 77.4201 110.039 82.3552 110.039 82.3552L105.881 84.0055ZM103.833 89.1596C101.929 89.4991 103.18 90.5655 110.547 92.0825C113.999 92.7966 121.08 94.1137 120.356 89.8609C119.663 85.7605 108.225 88.4074 108.225 88.4074L103.833 89.1596ZM101.541 95.453C99.9212 95.6942 100.956 96.6241 107.15 98.084C110.054 98.7695 116.014 100.055 115.496 96.4273C115.003 92.9362 105.271 94.9103 105.271 94.9103L101.541 95.453ZM99.8011 101.283C98.215 101.699 99.3391 102.511 105.653 103.286C108.61 103.647 114.668 104.276 113.784 100.724C112.931 97.3159 103.457 100.334 103.457 100.334L99.8011 101.283ZM109.084 77.6803C108.16 79.8131 110.079 79.4893 116.602 73.6244C119.657 70.8728 125.786 65.1157 120.932 62.2499C116.272 59.4951 111.261 72.7865 111.261 72.7865L109.084 77.6803ZM100.041 108.878C99.065 109.465 100.023 109.693 104.501 108.773C106.602 108.344 110.873 107.392 109.429 105.514C108.031 103.705 102.302 107.513 102.302 107.513L100.041 108.878Z" fill="white"/>
<path d="M106.694 81.962L105.945 69.1308L106.694 81.962ZM104.325 86.1957L99.5947 75.1608L104.325 86.1957ZM116.534 82.9871L105.197 84.6628L116.534 82.9871ZM101.874 92.1432L95.7356 84.0281L101.874 92.1432ZM102.952 89.655L111.409 90.093L102.952 89.655ZM100.95 95.8786L107.418 96.5387L100.95 95.8786ZM99.3884 99.833L96.1761 94.8535L99.3884 99.833ZM99.0188 101.591L106.623 101.664L99.0188 101.591ZM97.4789 116.292C97.5298 116.288 97.5771 116.263 97.6106 116.223C97.644 116.183 97.6609 116.132 97.6575 116.079C97.1739 108.596 99.9828 96.3388 104.489 86.2782C107.368 79.8483 118.656 67.2107 118.776 67.0838C118.813 67.0463 118.833 66.9955 118.833 66.9425C118.833 66.8896 118.813 66.8388 118.776 66.8013C118.759 66.7829 118.737 66.7683 118.714 66.7583C118.691 66.7483 118.666 66.7432 118.641 66.7432C118.616 66.7432 118.591 66.7483 118.567 66.7583C118.544 66.7683 118.523 66.7829 118.505 66.8013C118.391 66.9283 107.057 79.6135 104.153 86.1005C99.5639 96.4054 96.792 108.44 97.2848 116.105C97.2887 116.155 97.3107 116.202 97.3466 116.237C97.3825 116.272 97.4297 116.291 97.4789 116.292ZM106.691 82.1588C106.742 82.1555 106.789 82.1317 106.823 82.0925C106.857 82.0533 106.875 82.0018 106.873 81.9493L106.136 69.1117C106.135 69.0856 106.129 69.06 106.118 69.0364C106.107 69.0127 106.092 68.9916 106.073 68.9741C106.054 68.9567 106.032 68.9433 106.008 68.9348C105.984 68.9263 105.958 68.9228 105.933 68.9245C105.882 68.9278 105.835 68.9516 105.801 68.9908C105.767 69.03 105.749 69.0814 105.751 69.134L106.5 81.9652C106.502 82.0157 106.523 82.0633 106.559 82.0982C106.595 82.1331 106.642 82.1525 106.691 82.1524V82.1588ZM104.393 86.3766C104.439 86.3551 104.476 86.3158 104.494 86.2671C104.512 86.2185 104.512 86.1644 104.492 86.1163L99.758 75.0814C99.7376 75.0335 99.6995 74.9958 99.6521 74.9768C99.6048 74.9577 99.552 74.9588 99.5054 74.9799C99.4589 75.0009 99.4223 75.0402 99.4038 75.089C99.3854 75.1378 99.3864 75.1922 99.4069 75.2401L104.138 86.275C104.152 86.3104 104.177 86.3407 104.208 86.3621C104.239 86.3835 104.276 86.3951 104.313 86.3956C104.345 86.3973 104.377 86.3908 104.406 86.3766H104.393ZM105.212 84.8532L116.543 83.1839C116.571 83.1833 116.598 83.1767 116.622 83.1647C116.647 83.1526 116.669 83.1353 116.687 83.1138C116.705 83.0924 116.718 83.0673 116.726 83.0403C116.733 83.0132 116.735 82.9848 116.732 82.9568C116.728 82.9289 116.718 82.9021 116.704 82.8781C116.69 82.8542 116.67 82.8337 116.648 82.818C116.625 82.8023 116.599 82.7917 116.572 82.7869C116.545 82.7821 116.518 82.7833 116.491 82.7903L105.16 84.4597C105.109 84.4631 105.062 84.487 105.029 84.5263C104.995 84.5656 104.978 84.617 104.981 84.6691C104.985 84.7213 105.008 84.77 105.046 84.8046C105.084 84.8391 105.134 84.8566 105.185 84.8532H105.212ZM101.982 92.3019C102.022 92.2693 102.048 92.2217 102.054 92.1694C102.061 92.1171 102.047 92.0643 102.016 92.0226L95.8742 83.8916C95.8428 83.8495 95.7964 83.822 95.7453 83.8152C95.6942 83.8083 95.6425 83.8227 95.6017 83.8551C95.5608 83.8875 95.5341 83.9353 95.5275 83.988C95.5209 84.0407 95.5348 84.0939 95.5662 84.136L101.72 92.2796C101.738 92.3034 101.761 92.3226 101.787 92.3358C101.813 92.349 101.842 92.3558 101.871 92.3558C101.917 92.3535 101.96 92.3343 101.994 92.3019H101.982ZM111.579 90.1025C111.58 90.05 111.562 89.9989 111.527 89.9603C111.493 89.9217 111.445 89.8987 111.394 89.8962L102.952 89.4551C102.904 89.4584 102.86 89.4796 102.827 89.5146C102.793 89.5496 102.774 89.596 102.771 89.645C102.769 89.6939 102.784 89.742 102.814 89.7801C102.844 89.8183 102.886 89.8438 102.933 89.8518L111.391 90.2929C111.442 90.2946 111.491 90.2756 111.529 90.24C111.566 90.2044 111.589 90.155 111.591 90.1025H111.579ZM107.596 96.5578C107.599 96.5317 107.597 96.5052 107.59 96.48C107.583 96.4547 107.571 96.4312 107.555 96.4108C107.539 96.3904 107.519 96.3735 107.496 96.3611C107.474 96.3487 107.449 96.3412 107.424 96.3388L100.956 95.6818C100.931 95.6792 100.906 95.6817 100.881 95.6893C100.857 95.6968 100.835 95.7092 100.815 95.7257C100.796 95.7422 100.78 95.7626 100.768 95.7855C100.756 95.8085 100.749 95.8337 100.747 95.8596C100.742 95.9116 100.758 95.9634 100.79 96.0037C100.822 96.044 100.869 96.0698 100.919 96.0754L107.387 96.7355H107.405C107.455 96.739 107.504 96.7224 107.542 96.6892C107.58 96.656 107.604 96.6089 107.609 96.5578H107.596ZM99.4808 99.9981C99.5236 99.9689 99.5534 99.9235 99.5638 99.8718C99.5742 99.82 99.5643 99.7662 99.5362 99.7219L96.3393 94.7424C96.31 94.6995 96.2658 94.67 96.2159 94.6599C96.1659 94.6499 96.1141 94.6601 96.0713 94.6885C96.0286 94.7176 95.9987 94.763 95.9884 94.8148C95.978 94.8665 95.9879 94.9203 96.0159 94.9646L99.2128 99.9441C99.2311 99.9713 99.2555 99.9936 99.2839 100.009C99.3123 100.025 99.3439 100.033 99.3761 100.033C99.4178 100.035 99.459 100.023 99.4931 99.9981H99.4808ZM106.817 101.664C106.816 101.612 106.796 101.562 106.76 101.525C106.725 101.488 106.677 101.466 106.626 101.464L99.0219 101.391C98.9712 101.391 98.9227 101.412 98.8869 101.449C98.8511 101.486 98.8309 101.536 98.8309 101.588C98.8301 101.614 98.8344 101.64 98.8437 101.665C98.853 101.689 98.8669 101.712 98.8848 101.73C98.9027 101.749 98.924 101.764 98.9476 101.774C98.9711 101.784 98.9964 101.788 99.0219 101.788L106.626 101.861C106.652 101.862 106.678 101.858 106.703 101.849C106.727 101.84 106.749 101.825 106.768 101.807C106.787 101.789 106.802 101.767 106.813 101.742C106.823 101.718 106.829 101.691 106.829 101.664H106.817ZM96.6134 113.381C96.6288 113.347 97.9254 109.665 101.825 108.786C101.875 108.775 101.919 108.743 101.946 108.699C101.974 108.654 101.983 108.6 101.972 108.548C101.96 108.497 101.929 108.453 101.886 108.426C101.843 108.398 101.791 108.388 101.741 108.399C97.6298 109.326 96.2654 113.213 96.25 113.251C96.2341 113.301 96.2378 113.356 96.2602 113.403C96.2826 113.451 96.322 113.487 96.3701 113.505H96.4317C96.4727 113.509 96.5137 113.499 96.5486 113.477C96.5836 113.454 96.6106 113.421 96.6257 113.381H96.6134ZM97.4789 116.292C97.5298 116.288 97.5771 116.263 97.6106 116.223C97.644 116.183 97.6609 116.132 97.6575 116.079C97.1739 108.596 99.9828 96.3388 104.489 86.2782C107.368 79.8483 118.656 67.2107 118.776 67.0838C118.813 67.0463 118.833 66.9955 118.833 66.9425C118.833 66.8896 118.813 66.8388 118.776 66.8013C118.759 66.7829 118.737 66.7683 118.714 66.7583C118.691 66.7483 118.666 66.7432 118.641 66.7432C118.616 66.7432 118.591 66.7483 118.567 66.7583C118.544 66.7683 118.523 66.7829 118.505 66.8013C118.391 66.9283 107.057 79.6135 104.153 86.1005C99.5639 96.4054 96.792 108.44 97.2848 116.105C97.2887 116.155 97.3107 116.202 97.3466 116.237C97.3825 116.272 97.4297 116.291 97.4789 116.292ZM106.691 82.1588C106.742 82.1555 106.789 82.1317 106.823 82.0925C106.857 82.0533 106.875 82.0018 106.873 81.9493L106.136 69.1117C106.135 69.0856 106.129 69.06 106.118 69.0364C106.107 69.0127 106.092 68.9916 106.073 68.9741C106.054 68.9567 106.032 68.9433 106.008 68.9348C105.984 68.9263 105.958 68.9228 105.933 68.9245C105.882 68.9278 105.835 68.9516 105.801 68.9908C105.767 69.03 105.749 69.0814 105.751 69.134L106.5 81.9652C106.502 82.0157 106.523 82.0633 106.559 82.0982C106.595 82.1331 106.642 82.1525 106.691 82.1524V82.1588ZM104.393 86.3766C104.439 86.3551 104.476 86.3158 104.494 86.2671C104.512 86.2185 104.512 86.1644 104.492 86.1163L99.758 75.0814C99.7376 75.0335 99.6995 74.9958 99.6521 74.9768C99.6048 74.9577 99.552 74.9588 99.5054 74.9799C99.4589 75.0009 99.4223 75.0402 99.4038 75.089C99.3854 75.1378 99.3864 75.1922 99.4069 75.2401L104.138 86.275C104.152 86.3104 104.177 86.3407 104.208 86.3621C104.239 86.3835 104.276 86.3951 104.313 86.3956C104.345 86.3973 104.377 86.3908 104.406 86.3766H104.393ZM105.212 84.8532L116.543 83.1839C116.571 83.1833 116.598 83.1767 116.622 83.1647C116.647 83.1526 116.669 83.1353 116.687 83.1138C116.705 83.0924 116.718 83.0673 116.726 83.0403C116.733 83.0132 116.735 82.9848 116.732 82.9568C116.728 82.9289 116.718 82.9021 116.704 82.8781C116.69 82.8542 116.67 82.8337 116.648 82.818C116.625 82.8023 116.599 82.7917 116.572 82.7869C116.545 82.7821 116.518 82.7833 116.491 82.7903L105.16 84.4597C105.109 84.4631 105.062 84.487 105.029 84.5263C104.995 84.5656 104.978 84.617 104.981 84.6691C104.985 84.7213 105.008 84.77 105.046 84.8046C105.084 84.8391 105.134 84.8566 105.185 84.8532H105.212ZM101.982 92.3019C102.022 92.2693 102.048 92.2217 102.054 92.1694C102.061 92.1171 102.047 92.0643 102.016 92.0226L95.8742 83.8916C95.8587 83.8708 95.8393 83.8533 95.8171 83.8402C95.795 83.8271 95.7706 83.8186 95.7453 83.8152C95.72 83.8118 95.6943 83.8136 95.6696 83.8204C95.645 83.8273 95.6219 83.8391 95.6017 83.8551C95.5814 83.8711 95.5645 83.8911 95.5518 83.9139C95.539 83.9367 95.5308 83.9619 95.5275 83.988C95.5242 84.0141 95.5259 84.0406 95.5326 84.0659C95.5392 84.0913 95.5507 84.1151 95.5662 84.136L101.72 92.2796C101.738 92.3034 101.761 92.3226 101.787 92.3358C101.813 92.349 101.842 92.3558 101.871 92.3558C101.917 92.3535 101.96 92.3343 101.994 92.3019H101.982ZM111.579 90.1025C111.58 90.05 111.562 89.9989 111.527 89.9603C111.493 89.9217 111.445 89.8987 111.394 89.8962L102.952 89.4551C102.904 89.4584 102.86 89.4796 102.827 89.5146C102.793 89.5496 102.774 89.596 102.771 89.645C102.769 89.6939 102.784 89.742 102.814 89.7801C102.844 89.8183 102.886 89.8438 102.933 89.8518L111.391 90.2929C111.442 90.2946 111.491 90.2756 111.529 90.24C111.566 90.2044 111.589 90.155 111.591 90.1025H111.579ZM107.596 96.5578C107.599 96.5317 107.597 96.5052 107.59 96.48C107.583 96.4547 107.571 96.4312 107.555 96.4108C107.539 96.3904 107.519 96.3735 107.496 96.3611C107.474 96.3487 107.449 96.3412 107.424 96.3388L100.956 95.6818C100.931 95.6792 100.906 95.6817 100.881 95.6893C100.857 95.6968 100.835 95.7092 100.815 95.7257C100.796 95.7422 100.78 95.7626 100.768 95.7855C100.756 95.8085 100.749 95.8337 100.747 95.8596C100.742 95.9116 100.758 95.9634 100.79 96.0037C100.822 96.044 100.869 96.0698 100.919 96.0754L107.387 96.7355H107.405C107.455 96.739 107.504 96.7224 107.542 96.6892C107.58 96.656 107.604 96.6089 107.609 96.5578H107.596ZM99.4808 99.9981C99.5236 99.9689 99.5534 99.9235 99.5638 99.8718C99.5742 99.82 99.5643 99.7662 99.5362 99.7219L96.3393 94.7424C96.31 94.6995 96.2658 94.67 96.2159 94.6599C96.1659 94.6499 96.1141 94.6601 96.0713 94.6885C96.0286 94.7176 95.9987 94.763 95.9884 94.8148C95.978 94.8665 95.9879 94.9203 96.0159 94.9646L99.2128 99.9441C99.2311 99.9713 99.2555 99.9936 99.2839 100.009C99.3123 100.025 99.3439 100.033 99.3761 100.033C99.4178 100.035 99.459 100.023 99.4931 99.9981H99.4808ZM106.817 101.664C106.816 101.612 106.796 101.562 106.76 101.525C106.725 101.488 106.677 101.466 106.626 101.464L99.0219 101.391C98.9712 101.391 98.9227 101.412 98.8869 101.449C98.8511 101.486 98.8309 101.536 98.8309 101.588C98.8301 101.614 98.8344 101.64 98.8437 101.665C98.853 101.689 98.8669 101.712 98.8848 101.73C98.9027 101.749 98.924 101.764 98.9476 101.774C98.9711 101.784 98.9964 101.788 99.0219 101.788L106.626 101.861C106.652 101.862 106.678 101.858 106.703 101.849C106.727 101.84 106.749 101.825 106.768 101.807C106.787 101.789 106.802 101.767 106.813 101.742C106.823 101.718 106.829 101.691 106.829 101.664H106.817ZM96.6134 113.381C96.6288 113.347 97.9254 109.665 101.825 108.786C101.875 108.775 101.919 108.743 101.946 108.699C101.974 108.654 101.983 108.6 101.972 108.548C101.96 108.497 101.929 108.453 101.886 108.426C101.843 108.398 101.791 108.388 101.741 108.399C97.6298 109.326 96.2654 113.213 96.25 113.251C96.2341 113.301 96.2378 113.356 96.2602 113.403C96.2826 113.451 96.322 113.487 96.3701 113.505H96.4317C96.4727 113.509 96.5137 113.499 96.5486 113.477C96.5836 113.454 96.6106 113.421 96.6257 113.381H96.6134Z" fill="#42A6EA"/>
<path opacity="0.2" d="M106.694 81.962L105.945 69.1308L106.694 81.962ZM104.325 86.1957L99.5947 75.1608L104.325 86.1957ZM116.534 82.9871L105.197 84.6628L116.534 82.9871ZM101.874 92.1432L95.7356 84.0281L101.874 92.1432ZM102.952 89.655L111.409 90.093L102.952 89.655ZM100.95 95.8786L107.418 96.5387L100.95 95.8786ZM99.3884 99.833L96.1761 94.8535L99.3884 99.833ZM99.0188 101.591L106.623 101.664L99.0188 101.591ZM97.4789 116.292C97.5298 116.288 97.5771 116.263 97.6106 116.223C97.644 116.183 97.6609 116.132 97.6575 116.079C97.1739 108.596 99.9828 96.3388 104.489 86.2782C107.368 79.8483 118.656 67.2107 118.776 67.0838C118.813 67.0463 118.833 66.9955 118.833 66.9425C118.833 66.8896 118.813 66.8388 118.776 66.8013C118.759 66.7829 118.737 66.7683 118.714 66.7583C118.691 66.7483 118.666 66.7432 118.641 66.7432C118.616 66.7432 118.591 66.7483 118.567 66.7583C118.544 66.7683 118.523 66.7829 118.505 66.8013C118.391 66.9283 107.057 79.6135 104.153 86.1005C99.5639 96.4054 96.792 108.44 97.2848 116.105C97.2887 116.155 97.3107 116.202 97.3466 116.237C97.3825 116.272 97.4297 116.291 97.4789 116.292ZM106.691 82.1588C106.742 82.1555 106.789 82.1317 106.823 82.0925C106.857 82.0533 106.875 82.0018 106.873 81.9493L106.136 69.1117C106.135 69.0856 106.129 69.06 106.118 69.0364C106.107 69.0127 106.092 68.9916 106.073 68.9741C106.054 68.9567 106.032 68.9433 106.008 68.9348C105.984 68.9263 105.958 68.9228 105.933 68.9245C105.882 68.9278 105.835 68.9516 105.801 68.9908C105.767 69.03 105.749 69.0814 105.751 69.134L106.5 81.9652C106.502 82.0157 106.523 82.0633 106.559 82.0982C106.595 82.1331 106.642 82.1525 106.691 82.1524V82.1588ZM104.393 86.3766C104.439 86.3551 104.476 86.3158 104.494 86.2671C104.512 86.2185 104.512 86.1644 104.492 86.1163L99.758 75.0814C99.7376 75.0335 99.6995 74.9958 99.6521 74.9768C99.6048 74.9577 99.552 74.9588 99.5054 74.9799C99.4589 75.0009 99.4223 75.0402 99.4038 75.089C99.3854 75.1378 99.3864 75.1922 99.4069 75.2401L104.138 86.275C104.152 86.3104 104.177 86.3407 104.208 86.3621C104.239 86.3835 104.276 86.3951 104.313 86.3956C104.345 86.3973 104.377 86.3908 104.406 86.3766H104.393ZM105.212 84.8532L116.543 83.1839C116.571 83.1833 116.598 83.1767 116.622 83.1647C116.647 83.1526 116.669 83.1353 116.687 83.1138C116.705 83.0924 116.718 83.0673 116.726 83.0403C116.733 83.0132 116.735 82.9848 116.732 82.9568C116.728 82.9289 116.718 82.9021 116.704 82.8781C116.69 82.8542 116.67 82.8337 116.648 82.818C116.625 82.8023 116.599 82.7917 116.572 82.7869C116.545 82.7821 116.518 82.7833 116.491 82.7903L105.16 84.4597C105.109 84.4631 105.062 84.487 105.029 84.5263C104.995 84.5656 104.978 84.617 104.981 84.6691C104.985 84.7213 105.008 84.77 105.046 84.8046C105.084 84.8391 105.134 84.8566 105.185 84.8532H105.212ZM101.982 92.3019C102.022 92.2693 102.048 92.2217 102.054 92.1694C102.061 92.1171 102.047 92.0643 102.016 92.0226L95.8742 83.8916C95.8428 83.8495 95.7964 83.822 95.7453 83.8152C95.6942 83.8083 95.6425 83.8227 95.6017 83.8551C95.5608 83.8875 95.5341 83.9353 95.5275 83.988C95.5209 84.0407 95.5348 84.0939 95.5662 84.136L101.72 92.2796C101.738 92.3034 101.761 92.3226 101.787 92.3358C101.813 92.349 101.842 92.3558 101.871 92.3558C101.917 92.3535 101.96 92.3343 101.994 92.3019H101.982ZM111.579 90.1025C111.58 90.05 111.562 89.9989 111.527 89.9603C111.493 89.9217 111.445 89.8987 111.394 89.8962L102.952 89.4551C102.904 89.4584 102.86 89.4796 102.827 89.5146C102.793 89.5496 102.774 89.596 102.771 89.645C102.769 89.6939 102.784 89.742 102.814 89.7801C102.844 89.8183 102.886 89.8438 102.933 89.8518L111.391 90.2929C111.442 90.2946 111.491 90.2756 111.529 90.24C111.566 90.2044 111.589 90.155 111.591 90.1025H111.579ZM107.596 96.5578C107.599 96.5317 107.597 96.5052 107.59 96.48C107.583 96.4547 107.571 96.4312 107.555 96.4108C107.539 96.3904 107.519 96.3735 107.496 96.3611C107.474 96.3487 107.449 96.3412 107.424 96.3388L100.956 95.6818C100.931 95.6792 100.906 95.6817 100.881 95.6893C100.857 95.6968 100.835 95.7092 100.815 95.7257C100.796 95.7422 100.78 95.7626 100.768 95.7855C100.756 95.8085 100.749 95.8337 100.747 95.8596C100.742 95.9116 100.758 95.9634 100.79 96.0037C100.822 96.044 100.869 96.0698 100.919 96.0754L107.387 96.7355H107.405C107.455 96.739 107.504 96.7224 107.542 96.6892C107.58 96.656 107.604 96.6089 107.609 96.5578H107.596ZM99.4808 99.9981C99.5236 99.9689 99.5534 99.9235 99.5638 99.8718C99.5742 99.82 99.5643 99.7662 99.5362 99.7219L96.3393 94.7424C96.31 94.6995 96.2658 94.67 96.2159 94.6599C96.1659 94.6499 96.1141 94.6601 96.0713 94.6885C96.0286 94.7176 95.9987 94.763 95.9884 94.8148C95.978 94.8665 95.9879 94.9203 96.0159 94.9646L99.2128 99.9441C99.2311 99.9713 99.2555 99.9936 99.2839 100.009C99.3123 100.025 99.3439 100.033 99.3761 100.033C99.4178 100.035 99.459 100.023 99.4931 99.9981H99.4808ZM106.817 101.664C106.816 101.612 106.796 101.562 106.76 101.525C106.725 101.488 106.677 101.466 106.626 101.464L99.0219 101.391C98.9712 101.391 98.9227 101.412 98.8869 101.449C98.8511 101.486 98.8309 101.536 98.8309 101.588C98.8301 101.614 98.8344 101.64 98.8437 101.665C98.853 101.689 98.8669 101.712 98.8848 101.73C98.9027 101.749 98.924 101.764 98.9476 101.774C98.9711 101.784 98.9964 101.788 99.0219 101.788L106.626 101.861C106.652 101.862 106.678 101.858 106.703 101.849C106.727 101.84 106.749 101.825 106.768 101.807C106.787 101.789 106.802 101.767 106.813 101.742C106.823 101.718 106.829 101.691 106.829 101.664H106.817ZM96.6134 113.381C96.6288 113.347 97.9254 109.665 101.825 108.786C101.875 108.775 101.919 108.743 101.946 108.699C101.974 108.654 101.983 108.6 101.972 108.548C101.96 108.497 101.929 108.453 101.886 108.426C101.843 108.398 101.791 108.388 101.741 108.399C97.6298 109.326 96.2654 113.213 96.25 113.251C96.2341 113.301 96.2378 113.356 96.2602 113.403C96.2826 113.451 96.322 113.487 96.3701 113.505H96.4317C96.4727 113.509 96.5137 113.499 96.5486 113.477C96.5836 113.454 96.6106 113.421 96.6257 113.381H96.6134ZM97.4789 116.292C97.5298 116.288 97.5771 116.263 97.6106 116.223C97.644 116.183 97.6609 116.132 97.6575 116.079C97.1739 108.596 99.9828 96.3388 104.489 86.2782C107.368 79.8483 118.656 67.2107 118.776 67.0838C118.813 67.0463 118.833 66.9955 118.833 66.9425C118.833 66.8896 118.813 66.8388 118.776 66.8013C118.759 66.7829 118.737 66.7683 118.714 66.7583C118.691 66.7483 118.666 66.7432 118.641 66.7432C118.616 66.7432 118.591 66.7483 118.567 66.7583C118.544 66.7683 118.523 66.7829 118.505 66.8013C118.391 66.9283 107.057 79.6135 104.153 86.1005C99.5639 96.4054 96.792 108.44 97.2848 116.105C97.2887 116.155 97.3107 116.202 97.3466 116.237C97.3825 116.272 97.4297 116.291 97.4789 116.292ZM106.691 82.1588C106.742 82.1555 106.789 82.1317 106.823 82.0925C106.857 82.0533 106.875 82.0018 106.873 81.9493L106.136 69.1117C106.135 69.0856 106.129 69.06 106.118 69.0364C106.107 69.0127 106.092 68.9916 106.073 68.9741C106.054 68.9567 106.032 68.9433 106.008 68.9348C105.984 68.9263 105.958 68.9228 105.933 68.9245C105.882 68.9278 105.835 68.9516 105.801 68.9908C105.767 69.03 105.749 69.0814 105.751 69.134L106.5 81.9652C106.502 82.0157 106.523 82.0633 106.559 82.0982C106.595 82.1331 106.642 82.1525 106.691 82.1524V82.1588ZM104.393 86.3766C104.439 86.3551 104.476 86.3158 104.494 86.2671C104.512 86.2185 104.512 86.1644 104.492 86.1163L99.758 75.0814C99.7376 75.0335 99.6995 74.9958 99.6521 74.9768C99.6048 74.9577 99.552 74.9588 99.5054 74.9799C99.4589 75.0009 99.4223 75.0402 99.4038 75.089C99.3854 75.1378 99.3864 75.1922 99.4069 75.2401L104.138 86.275C104.152 86.3104 104.177 86.3407 104.208 86.3621C104.239 86.3835 104.276 86.3951 104.313 86.3956C104.345 86.3973 104.377 86.3908 104.406 86.3766H104.393ZM105.212 84.8532L116.543 83.1839C116.571 83.1833 116.598 83.1767 116.622 83.1647C116.647 83.1526 116.669 83.1353 116.687 83.1138C116.705 83.0924 116.718 83.0673 116.726 83.0403C116.733 83.0132 116.735 82.9848 116.732 82.9568C116.728 82.9289 116.718 82.9021 116.704 82.8781C116.69 82.8542 116.67 82.8337 116.648 82.818C116.625 82.8023 116.599 82.7917 116.572 82.7869C116.545 82.7821 116.518 82.7833 116.491 82.7903L105.16 84.4597C105.109 84.4631 105.062 84.487 105.029 84.5263C104.995 84.5656 104.978 84.617 104.981 84.6691C104.985 84.7213 105.008 84.77 105.046 84.8046C105.084 84.8391 105.134 84.8566 105.185 84.8532H105.212ZM101.982 92.3019C102.022 92.2693 102.048 92.2217 102.054 92.1694C102.061 92.1171 102.047 92.0643 102.016 92.0226L95.8742 83.8916C95.8587 83.8708 95.8393 83.8533 95.8171 83.8402C95.795 83.8271 95.7706 83.8186 95.7453 83.8152C95.72 83.8118 95.6943 83.8136 95.6696 83.8204C95.645 83.8273 95.6219 83.8391 95.6017 83.8551C95.5814 83.8711 95.5645 83.8911 95.5518 83.9139C95.539 83.9367 95.5308 83.9619 95.5275 83.988C95.5242 84.0141 95.5259 84.0406 95.5326 84.0659C95.5392 84.0913 95.5507 84.1151 95.5662 84.136L101.72 92.2796C101.738 92.3034 101.761 92.3226 101.787 92.3358C101.813 92.349 101.842 92.3558 101.871 92.3558C101.917 92.3535 101.96 92.3343 101.994 92.3019H101.982ZM111.579 90.1025C111.58 90.05 111.562 89.9989 111.527 89.9603C111.493 89.9217 111.445 89.8987 111.394 89.8962L102.952 89.4551C102.904 89.4584 102.86 89.4796 102.827 89.5146C102.793 89.5496 102.774 89.596 102.771 89.645C102.769 89.6939 102.784 89.742 102.814 89.7801C102.844 89.8183 102.886 89.8438 102.933 89.8518L111.391 90.2929C111.442 90.2946 111.491 90.2756 111.529 90.24C111.566 90.2044 111.589 90.155 111.591 90.1025H111.579ZM107.596 96.5578C107.599 96.5317 107.597 96.5052 107.59 96.48C107.583 96.4547 107.571 96.4312 107.555 96.4108C107.539 96.3904 107.519 96.3735 107.496 96.3611C107.474 96.3487 107.449 96.3412 107.424 96.3388L100.956 95.6818C100.931 95.6792 100.906 95.6817 100.881 95.6893C100.857 95.6968 100.835 95.7092 100.815 95.7257C100.796 95.7422 100.78 95.7626 100.768 95.7855C100.756 95.8085 100.749 95.8337 100.747 95.8596C100.742 95.9116 100.758 95.9634 100.79 96.0037C100.822 96.044 100.869 96.0698 100.919 96.0754L107.387 96.7355H107.405C107.455 96.739 107.504 96.7224 107.542 96.6892C107.58 96.656 107.604 96.6089 107.609 96.5578H107.596ZM99.4808 99.9981C99.5236 99.9689 99.5534 99.9235 99.5638 99.8718C99.5742 99.82 99.5643 99.7662 99.5362 99.7219L96.3393 94.7424C96.31 94.6995 96.2658 94.67 96.2159 94.6599C96.1659 94.6499 96.1141 94.6601 96.0713 94.6885C96.0286 94.7176 95.9987 94.763 95.9884 94.8148C95.978 94.8665 95.9879 94.9203 96.0159 94.9646L99.2128 99.9441C99.2311 99.9713 99.2555 99.9936 99.2839 100.009C99.3123 100.025 99.3439 100.033 99.3761 100.033C99.4178 100.035 99.459 100.023 99.4931 99.9981H99.4808ZM106.817 101.664C106.816 101.612 106.796 101.562 106.76 101.525C106.725 101.488 106.677 101.466 106.626 101.464L99.0219 101.391C98.9712 101.391 98.9227 101.412 98.8869 101.449C98.8511 101.486 98.8309 101.536 98.8309 101.588C98.8301 101.614 98.8344 101.64 98.8437 101.665C98.853 101.689 98.8669 101.712 98.8848 101.73C98.9027 101.749 98.924 101.764 98.9476 101.774C98.9711 101.784 98.9964 101.788 99.0219 101.788L106.626 101.861C106.652 101.862 106.678 101.858 106.703 101.849C106.727 101.84 106.749 101.825 106.768 101.807C106.787 101.789 106.802 101.767 106.813 101.742C106.823 101.718 106.829 101.691 106.829 101.664H106.817ZM96.6134 113.381C96.6288 113.347 97.9254 109.665 101.825 108.786C101.875 108.775 101.919 108.743 101.946 108.699C101.974 108.654 101.983 108.6 101.972 108.548C101.96 108.497 101.929 108.453 101.886 108.426C101.843 108.398 101.791 108.388 101.741 108.399C97.6298 109.326 96.2654 113.213 96.25 113.251C96.2341 113.301 96.2378 113.356 96.2602 113.403C96.2826 113.451 96.322 113.487 96.3701 113.505H96.4317C96.4727 113.509 96.5137 113.499 96.5486 113.477C96.5836 113.454 96.6106 113.421 96.6257 113.381H96.6134Z" fill="black"/>
<path d="M102.508 110.696H93.7891V112.556H94.5498L96.1236 122.702H100.174L101.748 112.556H102.508V110.696Z" fill="#42A6EA"/>
<path opacity="0.3" d="M102.508 110.696H93.7891V112.556H94.5498L96.1236 122.702H100.174L101.748 112.556H102.508V110.696Z" fill="white"/>
<path d="M24.008 54.4587L13.8659 51.047L12.9635 48.5905L10.9031 48.5239L7.16406 47.7939L7.61373 48.5905L12.3198 52.1102L13.4809 52.7068L24.0881 58.4163L24.008 54.4587Z" fill="white" stroke="#5F5F5F" stroke-width="1.00396" stroke-miterlimit="10"/>
<path d="M12.9631 48.5908L11.996 47.9941L10.0649 48.7241L10.3852 49.1208L12.9631 48.5908Z" fill="white" stroke="#5F5F5F" stroke-width="1.00396" stroke-linejoin="round"/>
<path d="M24.008 54.4587L13.8659 51.047L12.9635 48.5905L10.9031 48.5239L7.16406 47.7939L7.61373 48.5905L12.3198 52.1102L13.4809 52.7068L24.0881 58.4163L24.008 54.4587Z" fill="white"/>
<path opacity="0.5" d="M24.008 54.4587L13.8659 51.047L12.9635 48.5905L10.9031 48.5239L7.16406 47.7939L7.61373 48.5905L12.3198 52.1102L13.4809 52.7068L24.0881 58.4163L24.008 54.4587Z" fill="#42A6EA" stroke="#5F5F5F" stroke-width="1.00396" stroke-miterlimit="10"/>
<path d="M24.008 54.4587L13.8659 51.047L12.9635 48.5905L10.9031 48.5239L7.16406 47.7939L7.61373 48.5905L12.3198 52.1102L13.4809 52.7068L24.0881 58.4163L24.008 54.4587Z" stroke="#5F5F5F" stroke-width="1.00396" stroke-miterlimit="10"/>
<path d="M12.9631 48.5908L11.996 47.9941L10.0649 48.7241L10.3852 49.1208L12.9631 48.5908Z" fill="white"/>
<path opacity="0.5" d="M12.9631 48.5908L11.996 47.9941L10.0649 48.7241L10.3852 49.1208L12.9631 48.5908Z" fill="#42A6EA" stroke="#5F5F5F" stroke-width="1.00396" stroke-linejoin="round"/>
<path d="M12.9631 48.5908L11.996 47.9941L10.0649 48.7241L10.3852 49.1208L12.9631 48.5908Z" stroke="#5F5F5F" stroke-width="1.00396" stroke-linejoin="round"/>
<path d="M26.1605 32.3152C26.1605 32.3152 26.0034 33.7433 26.3946 34.6605C26.7857 35.5777 28.957 38.6848 28.957 38.6848L24.9039 42.033C24.9039 42.033 23.2223 38.542 22.902 37.977C22.5817 37.4121 22.1967 34.9811 23.2408 33.2387C24.2848 31.4964 25.7878 31.0267 26.1605 32.3152Z" fill="white"/>
<g style="mix-blend-mode:multiply" opacity="0.5">
<path d="M24.0788 36.9053L25.8374 40.6629L24.9012 42.0371L23.1333 38.7841L24.0788 36.9053Z" fill="#42A6EA"/>
</g>
<path d="M26.1605 32.3152C26.1605 32.3152 26.0034 33.7433 26.3946 34.6605C26.7857 35.5777 28.957 38.6848 28.957 38.6848L24.9039 42.033C24.9039 42.033 23.2223 38.542 22.902 37.977C22.5817 37.4121 22.1967 34.9811 23.2408 33.2387C24.2848 31.4964 25.7878 31.0267 26.1605 32.3152Z" stroke="#5F5F5F" stroke-width="1.00396" stroke-miterlimit="10"/>
<path d="M27.4177 29.7C27.1682 28.1132 25.4035 24.8855 22.6038 25.0093C20.7867 25.0918 19.9367 25.4695 19.1482 25.9297C18.5055 26.3199 17.9065 26.7818 17.3619 27.3071C15.9944 28.9986 15.5139 29.462 15.7788 30.7569C15.7571 31.2733 15.8356 31.7891 16.0098 32.2739C16.4287 33.4259 16.7151 34.1781 17.0785 34.7271C16.9676 35.2635 16.6781 36.679 16.6627 37.0027C16.6473 37.3264 17.5867 37.1011 18.061 36.9773C18.9419 39.0084 20.5557 40.4176 21.0577 40.5794C21.9324 40.8619 23.3153 39.3798 24.0483 38.2309C24.7813 37.082 24.227 35.7903 24.23 35.2762C24.2331 34.7621 25.8778 33.6322 26.4876 33.2736C27.0974 32.915 27.6641 31.2837 27.4177 29.7Z" fill="white"/>
<g style="mix-blend-mode:multiply" opacity="0.5">
<path d="M15.7906 30.7579C15.7689 31.2743 15.8474 31.7901 16.0216 32.2749C16.4405 33.4269 16.7269 34.1791 17.0903 34.7281C16.9795 35.2645 16.69 36.68 16.6746 37.0037C16.6592 37.3274 17.5985 37.1021 18.0728 36.9783C18.9537 39.0094 20.5675 40.4186 21.0696 40.5804C21.9442 40.8629 23.3271 39.3808 24.0601 38.2319C24.2433 37.9451 24.3621 37.6198 24.4082 37.2798C24.3681 37.1306 24.3404 37.0386 24.3404 37.0386C24.3404 37.0386 23.9277 38.673 23.1084 38.4604C22.2892 38.2478 21.0357 36.5562 20.3365 35.9722C19.6374 35.3883 19.9238 34.6202 19.7852 33.7507C19.6466 32.8811 17.577 32.1162 17.4384 31.6179C17.2998 31.1197 17.7833 29.0568 17.7833 29.0568C17.7833 29.0568 18.5687 27.9777 18.3993 28.422C18.2796 28.8073 18.2361 29.2134 18.2716 29.6163C18.307 30.0192 18.4206 30.4106 18.6056 30.7674C18.7355 31.0489 18.9414 31.2858 19.1988 31.4497C19.4561 31.6135 19.7539 31.6973 20.0563 31.6909L20.8078 27.8539L19.2216 26.502L17.3737 27.2954C15.9939 28.9996 15.5227 29.463 15.7906 30.7579Z" fill="#42A6EA"/>
</g>
<path d="M27.4177 29.7C27.1682 28.1132 25.4035 24.8855 22.6038 25.0093C20.7867 25.0918 19.9367 25.4695 19.1482 25.9297C18.5055 26.3199 17.9065 26.7818 17.3619 27.3071C15.9944 28.9986 15.5139 29.462 15.7788 30.7569C15.7571 31.2733 15.8356 31.7891 16.0098 32.2739C16.4287 33.4259 16.7151 34.1781 17.0785 34.7271C16.9676 35.2635 16.6781 36.679 16.6627 37.0027C16.6473 37.3264 17.5867 37.1011 18.061 36.9773C18.9419 39.0084 20.5557 40.4176 21.0577 40.5794C21.9324 40.8619 23.3153 39.3798 24.0483 38.2309C24.7813 37.082 24.227 35.7903 24.23 35.2762C24.2331 34.7621 25.8778 33.6322 26.4876 33.2736C27.0974 32.915 27.6641 31.2837 27.4177 29.7Z" stroke="#5F5F5F" stroke-miterlimit="10"/>
<path d="M17.46 33.7695L17.768 34.6772C17.768 34.6772 18.4301 34.9025 19.2371 33.9949" stroke="#5F5F5F" stroke-miterlimit="10" stroke-linecap="round"/>
<path d="M19.7358 38.0092C19.7358 38.0092 20.4689 37.9331 20.7645 36.873" stroke="#5F5F5F" stroke-miterlimit="10" stroke-linecap="round"/>
<path d="M16.9458 33.0105C16.9458 33.0105 17.1645 32.3281 18.4857 32.3281" stroke="#5F5F5F" stroke-miterlimit="10" stroke-linecap="round"/>
<path d="M23.7182 23.7468C22.7581 23.6046 21.7899 23.5282 20.82 23.5183C20.82 23.5183 17.9187 21.795 15.1314 23.6326C12.3441 25.4701 13.6839 28.6882 13.6839 29.4912C13.6839 30.2941 12.7907 30.2973 13.3482 31.3319C13.9056 32.3665 15.7905 31.7953 15.7905 31.7953C15.8104 31.4051 15.9105 31.0236 16.0841 30.6762C16.2577 30.3288 16.5009 30.0233 16.7976 29.78C17.8017 28.9771 18.6025 28.8025 18.9351 29.0342C18.9351 29.0342 18.7133 30.7575 19.046 31.4462C19.046 31.4462 20.1609 32.0206 20.4966 32.0206C20.8323 32.0206 20.2779 32.5062 21.3898 32.9378C21.5923 33.0128 21.809 33.0383 22.0227 33.0124C22.2365 32.9866 22.4415 32.91 22.6217 32.7886C22.7849 32.0904 23.1422 31.0399 23.8075 31.2843C24.7838 31.6429 25.6739 34.1184 24.3526 34.9626C25.9418 35.2609 27.8668 32.3634 27.9807 29.7229C28.0947 27.0824 25.369 24.0451 23.7182 23.7468Z" fill="#5F5F5F"/>
<path d="M18.9844 27.9008C18.9844 27.9008 19.8036 27.447 20.8077 28.4182C21.8117 29.3893 23.7644 30.6873 26.3515 29.9733" stroke="white" stroke-width="0.5" stroke-linecap="round" stroke-linejoin="round"/>
<path d="M18.8706 27.1235C18.8706 27.1235 19.4342 26.2158 20.3767 26.2158C21.3191 26.2158 23.5212 27.5773 25.2799 27.5773" stroke="white" stroke-width="0.5" stroke-linecap="round" stroke-linejoin="round"/>
<path d="M18.2301 28.8723C18.2301 28.8723 17.1614 27.514 16.1574 28.6152C15.1533 29.7165 15.7909 30.7575 15.7909 30.7575" stroke="white" stroke-width="0.5" stroke-linecap="round" stroke-linejoin="round"/>
<path d="M13.9585 29.7792C14.5709 29.2101 14.9516 28.4232 15.0241 27.5767C15.1504 26.1517 17.0384 24.9203 18.2303 26.0882" stroke="white" stroke-width="0.5" stroke-linecap="round" stroke-linejoin="round"/>
<path d="M15.9048 24.597C15.9048 24.597 17.7928 22.7182 19.3635 25.1143" stroke="white" stroke-width="0.5" stroke-linecap="round" stroke-linejoin="round"/>
<path d="M31.2701 116.974C31.2701 116.974 32.4312 118.833 32.3019 120.03L32.1756 121.226C32.1756 121.226 27.9161 122.429 27.0137 122.429C26.1113 122.429 21.3344 121.963 21.3344 121.963L21.128 121.118C21.1136 121.056 21.1204 120.991 21.1473 120.933C21.1742 120.875 21.2196 120.828 21.2758 120.801L25.5353 118.754L26.8782 117.24L31.2701 116.974Z" fill="white" stroke="#5F5F5F" stroke-width="1.00396" stroke-miterlimit="10"/>
<path d="M27.6605 121.493C28.8154 121.585 31.0083 120.858 32.2803 120.395L32.191 121.226C32.191 121.226 27.9161 122.429 27.0137 122.429C26.1113 122.429 21.3344 121.962 21.3344 121.962L21.1865 121.359C21.9503 121.363 26.1328 121.372 27.6605 121.493Z" fill="#42A6EA" stroke="#5F5F5F" stroke-width="1.00396" stroke-miterlimit="10"/>
<path d="M25.5417 118.754L19.3419 121.535C19.3419 121.535 18.8121 122.902 19.3419 123.175C19.8716 123.448 31.4212 123.175 31.4212 123.175C31.4212 123.175 32.2189 121.014 30.9592 119.564C29.6996 118.113 25.5417 118.754 25.5417 118.754Z" fill="white" stroke="#5F5F5F" stroke-width="1.00396" stroke-miterlimit="10"/>
<path d="M31.4212 123.175C31.4212 123.175 19.8716 123.448 19.3419 123.175C19.0862 123.042 19.077 122.658 19.1355 122.293H31.6245C31.5837 122.593 31.5156 122.888 31.4212 123.175Z" fill="#42A6EA" stroke="#5F5F5F" stroke-width="1.00396" stroke-miterlimit="10"/>
<path d="M22.6098 70.4475C22.6098 70.4475 20.9898 77.8453 20.3769 82.4726C19.764 87.0998 19.4037 96.3701 19.533 97.4333C19.6624 98.4965 26.1117 116.31 26.1117 116.31L26.7554 117.897L31.2705 116.967C31.2705 116.967 29.207 110.188 28.4339 106.466C27.6609 102.743 25.97 96.6272 25.97 95.564C25.97 94.5008 29.9739 74.1956 30.2603 72.8626C30.5467 71.5297 31.8464 69.4827 31.8464 69.4827L23.2012 69.3018L22.6098 70.4475Z" fill="#42A6EA" stroke="#5F5F5F" stroke-width="1.00396" stroke-miterlimit="10"/>
<path d="M22.6096 70.4472C22.6096 70.4472 21.6609 77.204 22.0521 81.9011C22.4432 86.5981 23.2841 96.5984 23.2841 98.0868C23.2841 99.5753 25.6155 108.465 25.748 111.258C25.9543 115.291 25.6648 117.288 25.6648 117.288L25.5262 118.751C25.5262 118.751 28.2458 119.151 28.8402 119.325C29.5267 119.507 30.2352 119.587 30.9437 119.56C30.9437 119.56 31.9324 115.076 31.9324 111.254C31.9324 107.433 31.1101 99.569 30.7004 96.3826C30.2908 93.1962 31.5813 80.9045 32.3143 78.6099C33.0473 76.3154 34.6489 71.4565 33.5709 68.9746C32.4929 66.4928 22.6096 70.4472 22.6096 70.4472Z" fill="#42A6EA" stroke="#5F5F5F" stroke-width="1.00396" stroke-miterlimit="10"/>
<path d="M34.7689 67.7305L34.6704 70.7518C34.6704 70.7518 32.9148 71.1104 30.5495 71.5325C28.5968 71.8817 23.6936 71.4405 22.0428 71.2755C21.8924 71.2617 21.7533 71.1873 21.6558 71.0685C21.5583 70.9496 21.5104 70.7959 21.5223 70.6407L21.6825 67.9114L34.7689 67.7305Z" fill="#5F5F5F"/>
<path d="M27.9074 37.6123C27.9074 37.6123 25.1355 40.7003 24.0915 42.6204C23.0474 44.5405 22.6347 47.4825 22.2435 49.7993C21.8524 52.116 22.9119 57.5557 22.6131 60.0534L21.6676 67.921C21.6676 67.921 21.4643 68.4542 22.145 69.0381C22.8256 69.6221 26.1488 69.8347 29.1517 69.9902C30.2482 70.0474 33.5221 69.3206 34.058 69.2857C34.7048 69.2444 34.7263 68.397 34.7541 67.7306C34.8834 64.5981 35.4316 56.2482 35.792 52.6111C36.5342 45.1942 32.4718 38.0344 27.9074 37.6123Z" fill="white" stroke="#5F5F5F" stroke-width="1.00396" stroke-miterlimit="10"/>
<g style="mix-blend-mode:multiply">
<path d="M35.4529 56.8291C35.5761 55.1819 35.6993 53.6871 35.8071 52.6112C35.8379 52.2939 35.8564 51.9765 35.8718 51.6591L28.5077 52.9286L22.1816 50.707C22.1823 52.0559 22.2564 53.4036 22.4034 54.744L28.6094 56.5339L35.4529 56.8291Z" fill="#42A6EA"/>
</g>
<g style="mix-blend-mode:multiply">
<path d="M27.6328 37.9238C27.2139 38.4031 26.3824 39.3774 25.5908 40.412L30.2661 45.309L31.806 44.6743L27.6328 37.9238Z" fill="#42A6EA"/>
</g>
<path d="M27.9072 37.6123C27.9072 37.6123 25.1353 40.7003 24.0912 42.6204C23.7816 43.2039 23.5308 43.8186 23.3428 44.4548L28.9174 37.8186C28.588 37.7158 28.2497 37.6467 27.9072 37.6123Z" fill="#5F5F5F"/>
<g style="mix-blend-mode:multiply">
<path d="M22.4585 48.5494L28.5074 50.5996L35.853 49.73C35.7378 47.8444 35.3313 45.9898 34.6487 44.2363L28.7261 46.6832L23.4317 44.2109C22.9988 45.6289 22.6734 47.0794 22.4585 48.5494Z" fill="#42A6EA"/>
</g>
<g style="mix-blend-mode:multiply">
<path d="M32.8721 64.5983C29.8041 65.1291 26.6562 64.8641 23.7125 63.8271L22.2372 63.3066L21.7783 67.1151L23.4599 67.6006C26.6568 68.5217 29.998 68.7869 33.294 68.3814L34.6523 68.2132C34.723 68.059 34.7628 67.8916 34.7693 67.7212C34.8063 66.8739 34.8709 65.6425 34.9541 64.2302L32.8721 64.5983Z" fill="#42A6EA"/>
</g>
<g style="mix-blend-mode:multiply">
<path d="M33.6944 59.4123C30.6263 59.9452 27.4776 59.679 24.5348 58.6379L22.6561 57.9746C22.7027 58.6661 22.6934 59.3603 22.6283 60.0502L22.4097 61.8814L24.2822 62.4209C27.4778 63.3429 30.8181 63.6093 34.1133 63.2048L35.0372 63.0906C35.1142 61.8211 35.2035 60.4691 35.299 59.133L33.6944 59.4123Z" fill="#42A6EA"/>
</g>
<path d="M4.79882 45.992L10.7539 50.9258L11.0106 50.5968L5.05549 45.663L4.79882 45.992Z" fill="#5F5F5F"/>
<path d="M30.7744 41.0371C30.7744 41.0371 32.958 42.57 33.0073 46.1912C33.0289 47.778 32.8687 49.2601 32.5145 51.8594C32.1604 54.4586 29.9613 62.9228 28.2489 63.9511C26.5365 64.9794 23.8785 63.0371 23.8785 63.0371L11.023 54.2428L7.91543 51.6563L6.37549 48.6603L6.85903 47.7082L10.6504 50.7042L8.60841 48.7587L9.0088 48.235L9.74797 48.765L11.9039 49.5965L12.3751 52.7702L13.0404 53.2399L25.3384 57.8703C25.3384 57.8703 25.1844 51.0501 25.2984 49.7457C25.4123 48.4413 25.5694 45.1629 26.9245 42.7858" fill="white"/>
<g style="mix-blend-mode:multiply" opacity="0.5">
<path d="M25.2524 52.7161C25.2524 55.071 25.3294 57.8701 25.3294 57.8701L13.0437 53.2588L12.3785 52.7891L11.9072 49.6154L9.75131 48.7839L9.01522 48.2444L8.61483 48.768L10.6506 50.704L6.85929 47.708L6.40039 48.6442L7.94034 51.6402L11.0479 54.2426L11.8302 54.779L28.8158 60.4186L25.2524 52.7161Z" fill="#42A6EA"/>
</g>
<path d="M30.7744 41.0371C30.7744 41.0371 32.958 42.57 33.0073 46.1912C33.0289 47.778 32.8687 49.2601 32.5145 51.8594C32.1604 54.4586 29.9613 62.9228 28.2489 63.9511C26.5365 64.9794 23.8785 63.0371 23.8785 63.0371L11.023 54.2428L7.91543 51.6563L6.37549 48.6603L6.85903 47.7082L10.6504 50.7042L8.60841 48.7587L9.0088 48.235L9.74797 48.765L11.9039 49.5965L12.3751 52.7702L13.0404 53.2399L25.3384 57.8703C25.3384 57.8703 25.1844 51.0501 25.2984 49.7457C25.4123 48.4413 25.5694 45.1629 26.9245 42.7858" stroke="#5F5F5F" stroke-width="1.00396" stroke-miterlimit="10"/>
<path d="M25.3384 57.87L30.0321 61.3611L31.2487 59.1395C31.2487 59.1395 32.0895 58.4572 32.2127 57.943C32.3359 57.4289 32.1788 56.5942 32.3051 56.0801C32.4313 55.5659 33.0596 55.0835 33.1182 53.8394C33.1767 52.5954 33.1182 51.5576 33.1182 51.5576C33.1182 51.5576 34.1345 47.2509 34.0237 45.3784C33.9128 43.5059 32.1603 40.1958 30.7559 40.1228C29.3515 40.0498 27.5251 40.2688 26.1083 42.4777C24.6916 44.6865 24.9811 51.1355 24.7593 51.5385C24.5376 51.9416 24.8456 53.9315 24.8456 53.9315C24.7225 54.0261 24.6204 54.1466 24.546 54.2851C24.4717 54.4235 24.4268 54.5767 24.4144 54.7344C24.3898 55.2517 24.9318 56.5244 24.9318 56.5244L25.3384 57.87Z" fill="white" stroke="#5F5F5F" stroke-width="1.00396" stroke-miterlimit="10"/>
<g style="mix-blend-mode:multiply">
<path d="M24.8824 49.8818C24.892 50.4356 24.8518 50.9892 24.7622 51.5353C24.5651 51.8971 24.79 53.5316 24.8392 53.8648C27.4793 54.7098 30.2709 54.9268 33.004 54.4995C33.0628 54.2788 33.0979 54.0521 33.1088 53.8236C33.1703 52.5826 33.1088 51.5417 33.1088 51.5417C33.1088 51.5417 33.1981 51.1577 33.3213 50.5737C30.4907 50.7591 27.6489 50.5261 24.8824 49.8818Z" fill="#42A6EA"/>
</g>
<g style="mix-blend-mode:multiply">
<path d="M25.9174 42.8301C25.4769 43.7409 25.2305 45.1088 25.0889 46.4957C27.8848 47.5952 30.8994 47.9733 33.8696 47.597C33.9882 46.863 34.0407 46.1193 34.0267 45.3754C33.9734 44.7873 33.8385 44.2102 33.6263 43.6616C31.0328 43.724 28.4421 43.4445 25.9174 42.8301Z" fill="#42A6EA"/>
</g>
<path d="M24.9316 56.5596L25.3289 57.8703L30.0227 61.3614L31.2393 59.1398C31.2393 59.1398 32.0801 58.4574 32.2033 57.9433C32.2252 57.8539 32.2387 57.7625 32.2433 57.6704C29.7698 57.6263 27.3122 57.253 24.9316 56.5596Z" fill="#5F5F5F"/>
<path d="M28.329 119.284C28.329 119.284 28.4338 116.535 28.945 112.517C29.4563 108.499 28.2274 102.793 28.0211 101.841C27.8147 100.889 28.1258 98.7752 27.9194 98.0325C27.7131 97.2899 26.7152 94.1225 27.3034 90.4474C27.8917 86.7723 28.3691 77.0576 28.3691 77.0576C28.3691 77.0576 26.8876 75.8167 26.4534 74.2013C26.0191 72.5859 26.3517 72.0781 26.3517 72.0781" stroke="#5F5F5F" stroke-width="1.00396" stroke-miterlimit="10"/>
<path d="M29.0161 72.2275L28.4463 75.4774" stroke="#5F5F5F" stroke-width="1.00396" stroke-miterlimit="10"/>
</svg>
