<svg width="175" height="126" viewBox="0 0 175 126" fill="none" xmlns="http://www.w3.org/2000/svg">
<path d="M175 110.35H0V110.433H175V110.35Z" fill="#EBEBEB"/>
<path d="M29.9528 113.545H18.3608V113.629H29.9528V113.545Z" fill="#EBEBEB"/>
<path d="M62.9404 112.635H59.8989V112.719H62.9404V112.635Z" fill="#EBEBEB"/>
<path d="M37.0192 116.66H30.3027V116.744H37.0192V116.66Z" fill="#EBEBEB"/>
<path d="M157.465 116.098H142.349V116.182H157.465V116.098Z" fill="#EBEBEB"/>
<path d="M139.23 116.098H137.015V116.182H139.23V116.098Z" fill="#EBEBEB"/>
<path d="M129.811 114.682H97.0234V114.766H129.811V114.682Z" fill="#EBEBEB"/>
<path d="M82.95 95.386H15.372C14.842 95.386 14.3337 95.1842 13.9589 94.8249C13.5841 94.4656 13.3735 93.9783 13.3735 93.4702V2.40098C13.3782 1.89579 13.5907 1.4128 13.965 1.05713C14.3393 0.701472 14.845 0.501934 15.372 0.501953H82.95C83.4801 0.501953 83.9884 0.703796 84.3632 1.06308C84.738 1.42236 84.9485 1.90965 84.9485 2.41775V93.4702C84.9485 93.9783 84.738 94.4656 84.3632 94.8249C83.9884 95.1842 83.4801 95.386 82.95 95.386ZM15.372 0.569057C14.8655 0.569944 14.38 0.763233 14.0218 1.10659C13.6636 1.44995 13.462 1.91539 13.461 2.40098V93.4702C13.462 93.9558 13.6636 94.4212 14.0218 94.7646C14.38 95.108 14.8655 95.3012 15.372 95.3021H82.95C83.4566 95.3012 83.9421 95.108 84.3003 94.7646C84.6585 94.4212 84.8601 93.9558 84.861 93.4702V2.40098C84.8601 1.91539 84.6585 1.44995 84.3003 1.10659C83.9421 0.763233 83.4566 0.569944 82.95 0.569057H15.372Z" fill="#EBEBEB"/>
<path d="M158.658 95.386H91.0732C90.5435 95.3851 90.0357 95.183 89.6611 94.8239C89.2865 94.4648 89.0756 93.978 89.0747 93.4702V2.40098C89.0802 1.89606 89.2931 1.41358 89.6672 1.0581C90.0413 0.702628 90.5465 0.502808 91.0732 0.501953H158.658C159.184 0.503699 159.688 0.704018 160.061 1.05949C160.433 1.41496 160.645 1.89695 160.65 2.40098V93.4702C160.65 93.9772 160.44 94.4634 160.067 94.8225C159.694 95.1816 159.187 95.3842 158.658 95.386ZM91.0732 0.569057C90.5667 0.569944 90.0811 0.763233 89.7229 1.10659C89.3648 1.44995 89.1631 1.91539 89.1622 2.40098V93.4702C89.1631 93.9558 89.3648 94.4212 89.7229 94.7646C90.0811 95.108 90.5667 95.3012 91.0732 95.3021H158.658C159.165 95.3012 159.65 95.108 160.008 94.7646C160.367 94.4212 160.568 93.9558 160.569 93.4702V2.40098C160.568 1.91539 160.367 1.44995 160.008 1.10659C159.65 0.763233 159.165 0.569944 158.658 0.569057H91.0732Z" fill="#EBEBEB"/>
<path d="M88.9948 6.76953H21.4868V78.9022H88.9948V6.76953Z" fill="#EBEBEB"/>
<path d="M91.1858 6.76953H22.5088V78.9022H91.1858V6.76953Z" fill="#F5F5F5"/>
<path d="M88.9948 78.9023H21.4868V82.8111H88.9948V78.9023Z" fill="#EBEBEB"/>
<path d="M101.609 78.9023H32.9316V82.8111H101.609V78.9023Z" fill="#F0F0F0"/>
<path d="M88.1162 75.9563V9.71191L25.5817 9.71191L25.5817 75.9563H88.1162Z" fill="#FAFAFA"/>
<path d="M28.1226 75.9563L46.1546 9.71191H54.6666L36.6346 75.9563H28.1226Z" fill="white"/>
<path d="M27.0057 47.8103C26.9472 47.8103 26.8911 47.788 26.8497 47.7483C26.8084 47.7087 26.7852 47.6549 26.7852 47.5989V11.6282C26.7919 11.5771 26.8178 11.5302 26.8581 11.4962C26.8984 11.4621 26.9502 11.4434 27.0039 11.4434C27.0576 11.4434 27.1094 11.4621 27.1497 11.4962C27.19 11.5302 27.2159 11.5771 27.2227 11.6282V47.5855C27.2246 47.614 27.2204 47.6427 27.2104 47.6697C27.2004 47.6967 27.1847 47.7214 27.1644 47.7425C27.1441 47.7635 27.1196 47.7803 27.0923 47.792C27.065 47.8036 27.0355 47.8099 27.0057 47.8103Z" fill="#F1F1F1"/>
<path d="M38.4614 75.9563L56.4934 9.71191H59.8114L41.7829 75.9563H38.4614Z" fill="white"/>
<path d="M88.1196 75.9592V9.71484H87.7311V75.9592H88.1196Z" fill="#EBEBEB"/>
<path d="M91.9136 12.8921H24.4056L24.1221 10.8555H91.6336L91.9136 12.8921Z" fill="#EBEBEB"/>
<path d="M91.9136 14.3862H24.4056L24.1221 12.3496H91.6336L91.9136 14.3862Z" fill="#EBEBEB"/>
<path d="M91.9136 16.1733H24.4056L24.1221 14.1367H91.6336L91.9136 16.1733Z" fill="#EBEBEB"/>
<path d="M91.9136 18.1635H24.4056L24.1221 16.127H91.6336L91.9136 18.1635Z" fill="#EBEBEB"/>
<path d="M91.9136 20.5493H24.4056L24.1221 18.5127H91.6336L91.9136 20.5493Z" fill="#EBEBEB"/>
<path d="M91.9136 23.2339H24.4056L24.1221 21.1973H91.6336L91.9136 23.2339Z" fill="#EBEBEB"/>
<path d="M27.1846 74.3965H34.7306V75.1111H34.2511L33.8591 78.9025H28.0526L27.6606 75.1111H27.1846V74.3965Z" fill="#EBEBEB"/>
<path d="M26.6281 67.7564C26.5301 67.441 26.4426 67.1223 26.3586 66.8035C25.8651 67.4175 25.3856 67.5719 25.0286 67.5719H24.9131C24.2131 67.5048 23.5131 66.8471 23.0966 65.8104C23.087 65.7916 23.082 65.7709 23.082 65.75C23.082 65.7291 23.087 65.7084 23.0966 65.6896C23.1059 65.6709 23.1196 65.6545 23.1366 65.6417C23.1536 65.6289 23.1734 65.62 23.1946 65.6158C23.7023 65.4919 24.2316 65.4721 24.7479 65.5576C25.2641 65.6432 25.7558 65.8322 26.1906 66.1124C26.1241 65.8104 26.0716 65.5084 26.0261 65.2065C25.9108 65.228 25.7936 65.2393 25.6761 65.24C24.5211 65.24 23.6706 64.2502 23.6321 64.2033C23.6173 64.1853 23.6071 64.1643 23.6023 64.1419C23.5974 64.1194 23.5981 64.0963 23.6042 64.0741C23.6103 64.052 23.6217 64.0315 23.6375 64.0143C23.6532 63.9972 23.673 63.9837 23.6951 63.9751C23.9646 63.8439 24.2604 63.7699 24.5625 63.7583C24.8645 63.7468 25.1656 63.7978 25.4451 63.908C25.7478 64.0536 25.9933 64.2889 26.1451 64.5791C26.3623 63.9436 26.7577 63.3778 27.2879 62.9434C27.8182 62.509 28.463 62.2229 29.1516 62.1164C29.173 62.1113 29.1953 62.111 29.2169 62.1153C29.2385 62.1197 29.2588 62.1286 29.2763 62.1415C29.2937 62.1544 29.308 62.1709 29.3179 62.1898C29.3278 62.2087 29.3332 62.2294 29.3336 62.2506C29.3931 63.2571 29.3616 64.4885 28.5741 65.0756C28.2464 65.307 27.8468 65.4252 27.4401 65.4111C27.075 65.4026 26.7126 65.3485 26.3621 65.2501C26.4747 65.9762 26.636 66.6946 26.8451 67.4007C27.6143 66.3979 28.7046 65.6638 29.9496 65.3105C29.9886 65.3012 30.0298 65.3069 30.0644 65.3263C30.0991 65.3458 30.1244 65.3774 30.1351 65.4145C30.3731 66.2801 30.2506 66.9847 29.7851 67.4477C29.549 67.6521 29.2724 67.8089 28.9717 67.9086C28.671 68.0083 28.3525 68.049 28.0351 68.0282C27.693 68.0241 27.352 67.9893 27.0166 67.9242C27.2091 68.518 27.4261 69.0985 27.6571 69.6521C28.1296 69.2528 29.5156 68.2362 31.0241 68.6623C31.0449 68.6675 31.0641 68.6772 31.0805 68.6906C31.0969 68.7039 31.1099 68.7206 31.1186 68.7395C31.1272 68.7579 31.1316 68.7779 31.1316 68.7982C31.1316 68.8184 31.1272 68.8384 31.1186 68.8569C30.7091 69.8165 30.2436 70.3466 29.6556 70.5345C29.4994 70.582 29.3365 70.6058 29.1726 70.6049C28.7284 70.5844 28.2955 70.4637 27.9091 70.2526C28.2381 70.9841 28.5776 71.6719 28.9066 72.2825C29.2566 71.9168 30.2296 71.1585 31.9481 71.5108C31.9842 71.5181 32.0163 71.5378 32.0383 71.5663C32.0602 71.5947 32.0705 71.6299 32.0671 71.6652C32.029 71.9727 31.9074 72.2652 31.7146 72.5136C31.5218 72.7621 31.2644 72.9577 30.9681 73.081C30.747 73.1721 30.5088 73.2189 30.2681 73.2186C29.9288 73.2132 29.5955 73.1316 29.2951 72.9804C30.0581 74.3225 30.6671 75.1814 30.6951 75.2015C30.7113 75.2334 30.715 75.2698 30.7055 75.3041C30.696 75.3384 30.6739 75.3683 30.6433 75.3883C30.6127 75.4082 30.5756 75.417 30.5389 75.4129C30.5021 75.4088 30.4681 75.3921 30.4431 75.3659C29.8365 74.4857 29.2792 73.5752 28.7736 72.6382C28.7628 72.6251 28.7545 72.6104 28.7491 72.5945C28.6476 72.41 28.5496 72.2221 28.4481 72.0275C28.275 72.2774 28.042 72.484 27.7686 72.6299C27.4952 72.7759 27.1894 72.8569 26.8766 72.8663C26.8125 72.8696 26.7482 72.8696 26.6841 72.8663C26.3384 72.8282 26.0103 72.6993 25.7361 72.4939C25.4619 72.2885 25.2522 72.0145 25.1301 71.7021C25.1175 71.6698 25.1177 71.6343 25.1306 71.6021C25.1435 71.57 25.1682 71.5435 25.2001 71.5276C25.6447 71.2871 26.1426 71.1517 26.6526 71.1324C27.1627 71.1131 27.6702 71.2107 28.1331 71.4169C27.9161 70.9706 27.6956 70.4976 27.4856 70.0044C27.4738 69.9857 27.4656 69.9653 27.4611 69.944C27.4016 69.803 27.3421 69.6621 27.2861 69.5212C26.7821 70.1319 26.2781 70.4305 25.7566 70.4305C25.1196 70.4305 24.4791 69.9809 23.7931 69.0582C23.7695 69.0275 23.7596 68.989 23.7655 68.9513C23.7714 68.9136 23.7927 68.8796 23.8246 68.8569C24.9026 68.0819 26.3831 68.612 27.0551 68.9206C26.9186 68.5583 26.7891 68.1859 26.6701 67.8067L26.6281 67.7564Z" fill="#EBEBEB"/>
<path d="M34.5345 71.6576C34.2941 71.7291 34.0441 71.7664 33.7925 71.7683C33.4835 71.772 33.1778 71.7074 32.899 71.5795C32.6203 71.4516 32.376 71.2639 32.1851 71.031C31.9942 70.798 31.8618 70.5261 31.7983 70.2362C31.7347 69.9463 31.7416 69.6462 31.8185 69.3593C31.8268 69.3258 31.848 69.2965 31.8778 69.2773C31.9077 69.258 31.9439 69.2502 31.9795 69.2553C32.5687 69.3113 33.1353 69.502 33.6317 69.8114C34.128 70.1208 34.5397 70.5399 34.832 71.0335C35.182 70.3021 35.5005 69.5271 35.7875 68.7218C35.4205 68.9228 35.0091 69.0378 34.587 69.0573C34.4203 69.0576 34.2548 69.0316 34.097 68.9802C33.264 68.7084 32.7635 67.7321 32.347 66.7154C32.3383 66.6964 32.3338 66.6758 32.3338 66.6551C32.3338 66.6343 32.3383 66.6137 32.347 66.5947C32.3559 66.5763 32.369 66.5602 32.3854 66.5474C32.4018 66.5346 32.4209 66.5255 32.4415 66.5208C34.153 66.0645 35.539 67.6314 35.9695 68.1984C36.1958 67.5231 36.3839 66.8365 36.533 66.1417C36.1763 66.2062 35.8144 66.2399 35.4515 66.2424C35.0899 66.2668 34.7268 66.2199 34.3849 66.1045C34.0429 65.9891 33.7293 65.8076 33.4635 65.5713C32.9525 65.0513 32.83 64.2729 33.1135 63.32C33.1184 63.3014 33.1271 63.2839 33.1391 63.2686C33.1511 63.2532 33.1662 63.2404 33.1835 63.2307C33.2007 63.221 33.2198 63.2147 33.2397 63.2122C33.2595 63.2097 33.2797 63.211 33.299 63.216C34.6551 63.627 35.8338 64.4518 36.6555 65.5646L36.7185 65.1922C36.7229 65.1607 36.7376 65.1313 36.7605 65.1083C36.8294 64.8716 36.9481 64.6509 37.1095 64.4599C37.2708 64.2689 37.4713 64.1116 37.6985 63.9978C38.206 63.7663 38.8465 63.7998 39.599 64.0951C39.6214 64.1039 39.6413 64.1176 39.6572 64.1352C39.673 64.1528 39.6843 64.1738 39.6901 64.1963C39.6959 64.2189 39.696 64.2424 39.6905 64.2651C39.6851 64.2877 39.6741 64.3088 39.6585 64.3266C39.613 64.3769 38.682 65.4338 37.4255 65.4338C37.2915 65.4316 37.158 65.4182 37.0265 65.3935C36.9705 65.729 36.904 66.0847 36.8235 66.4269C37.3071 66.121 37.853 65.9171 38.425 65.8286C38.997 65.7401 39.582 65.769 40.1415 65.9136C40.1624 65.9191 40.1819 65.9289 40.1986 65.9422C40.2154 65.9555 40.229 65.972 40.2386 65.9907C40.2482 66.0094 40.2535 66.0298 40.2543 66.0507C40.255 66.0715 40.2512 66.0922 40.243 66.1115C39.753 67.2456 39.0005 67.9569 38.22 68.0206H38.115C37.7195 68.0206 37.1875 67.8461 36.645 67.1483C36.4275 67.9432 36.1682 68.7271 35.868 69.4969C36.603 69.1614 38.255 68.5876 39.4345 69.4633C39.4651 69.4871 39.4851 69.5212 39.4903 69.5586C39.4955 69.5961 39.4856 69.634 39.4625 69.6646C38.703 70.6712 37.996 71.1443 37.3065 71.1443C36.7325 71.1443 36.183 70.8087 35.637 70.1142C35.322 70.8658 34.986 71.5804 34.65 72.2414C35.3815 71.8052 36.19 71.8723 37.142 72.4494C37.1626 72.4622 37.1797 72.4796 37.1918 72.5C37.204 72.5204 37.2109 72.5434 37.212 72.5669C37.2125 72.5909 37.2071 72.6146 37.1962 72.6362C37.1852 72.6578 37.169 72.6766 37.149 72.691C36.5744 73.0643 35.9033 73.2779 35.21 73.3083C34.8499 73.314 34.4972 73.2107 34.202 73.0131C33.5526 74.2214 32.828 75.3911 32.032 76.5159C32.0163 76.5375 31.9953 76.5552 31.971 76.5675C31.9466 76.5798 31.9195 76.5862 31.892 76.5863C31.8579 76.5861 31.8249 76.5755 31.7975 76.5561C31.7793 76.5441 31.7637 76.5287 31.7518 76.5108C31.7398 76.4929 31.7316 76.473 31.7277 76.4521C31.7238 76.4312 31.7243 76.4098 31.729 76.3891C31.7338 76.3684 31.7428 76.3487 31.7555 76.3314C32.8063 74.8446 33.7354 73.282 34.5345 71.6576Z" fill="#EBEBEB"/>
<path d="M149.597 32.5771H133.76V49.249H149.597V32.5771Z" fill="#EBEBEB"/>
<path d="M147.952 33.6413C147.937 33.6457 147.921 33.6457 147.906 33.6413C147.864 33.6178 143.64 31.2088 142.306 31.2088C140.973 31.2088 136.93 33.6178 136.892 33.6413C136.872 33.6528 136.848 33.6564 136.825 33.6514C136.802 33.6464 136.782 33.6331 136.769 33.6144C136.763 33.6053 136.759 33.595 136.757 33.5842C136.755 33.5734 136.755 33.5623 136.758 33.5516C136.76 33.5409 136.765 33.5309 136.772 33.522C136.779 33.5132 136.787 33.5059 136.797 33.5004C136.965 33.3997 140.913 31.041 142.306 31.041C143.699 31.041 147.833 33.3896 148.008 33.497C148.027 33.5094 148.041 33.5285 148.046 33.5503C148.052 33.5722 148.048 33.5952 148.036 33.6144C148.026 33.626 148.013 33.6346 147.998 33.6393C147.983 33.6441 147.967 33.6447 147.952 33.6413Z" fill="#EBEBEB"/>
<path d="M151.312 32.5771H134.953V49.249H151.312V32.5771Z" fill="#F5F5F5"/>
<path d="M149.944 47.9373V33.8926H136.325V47.9373H149.944Z" fill="white"/>
<path d="M143.5 42.6097C143.281 42.6108 143.063 42.6344 142.849 42.6801C142.904 42.5002 142.932 42.3139 142.933 42.1265C142.933 41.6722 142.766 41.2324 142.461 40.8851C142.613 40.9319 142.773 40.9568 142.933 40.9589C143.314 40.9625 143.684 40.8426 143.985 40.6186C144.286 40.3946 144.498 40.0798 144.589 39.7252C144.679 39.3707 144.641 38.9973 144.482 38.6658C144.323 38.3343 144.052 38.0641 143.712 37.8991C143.372 37.7342 142.985 37.6843 142.612 37.7574C142.239 37.8306 141.902 38.0225 141.658 38.302C141.413 38.5815 141.274 38.9322 141.263 39.297C141.253 39.6618 141.371 40.0193 141.6 40.3114C141.324 40.215 141.03 40.1773 140.738 40.201C140.446 40.2248 140.162 40.3093 139.908 40.4488C139.653 40.5883 139.433 40.7793 139.264 41.0085C139.094 41.2378 138.979 41.4998 138.926 41.7762C138.872 42.0526 138.883 42.3369 138.956 42.6091C139.029 42.8813 139.163 43.1349 139.349 43.3522C139.535 43.5696 139.768 43.7454 140.032 43.8675C140.297 43.9896 140.585 44.055 140.879 44.0591C140.607 44.5015 140.465 45.0055 140.466 45.5186C140.466 46.0939 140.644 46.6563 140.977 47.1347C141.31 47.6131 141.784 47.9859 142.339 48.2061C142.893 48.4263 143.503 48.4839 144.092 48.3716C144.681 48.2594 145.221 47.9823 145.646 47.5755C146.07 47.1687 146.359 46.6504 146.476 46.0861C146.593 45.5218 146.533 44.9369 146.304 44.4054C146.074 43.8738 145.685 43.4195 145.186 43.0999C144.687 42.7803 144.1 42.6097 143.5 42.6097Z" fill="#F5F5F5"/>
<path d="M140.567 36.3754C140.568 36.6921 140.47 37.0018 140.287 37.2654C140.104 37.5291 139.844 37.7347 139.539 37.8564C139.234 37.978 138.898 38.0102 138.574 37.9488C138.25 37.8874 137.952 37.7353 137.718 37.5116C137.484 37.2879 137.325 37.0027 137.26 36.6922C137.196 36.3817 137.229 36.0597 137.355 35.7671C137.481 35.4744 137.695 35.2243 137.97 35.0483C138.244 34.8723 138.567 34.7783 138.898 34.7783C139.339 34.7792 139.763 34.9476 140.076 35.2469C140.389 35.5461 140.565 35.9518 140.567 36.3754Z" fill="#F5F5F5"/>
<path d="M128.146 16.7607H110.247V35.6H128.146V16.7607Z" fill="#EBEBEB"/>
<path d="M125.937 17.5333C125.922 17.5367 125.907 17.5367 125.892 17.5333C125.85 17.5065 121.622 15.0974 120.292 15.0974C118.962 15.0974 114.919 17.5065 114.881 17.5299C114.871 17.5361 114.86 17.5402 114.848 17.5422C114.837 17.5442 114.825 17.5439 114.813 17.5414C114.802 17.5389 114.791 17.5342 114.782 17.5276C114.772 17.521 114.764 17.5127 114.758 17.5031C114.746 17.4843 114.743 17.4619 114.748 17.4406C114.753 17.4193 114.767 17.4008 114.786 17.389C114.954 17.2884 118.899 14.9297 120.292 14.9297C121.685 14.9297 125.822 17.2783 125.997 17.389C126.007 17.3945 126.015 17.4019 126.022 17.4107C126.029 17.4195 126.034 17.4296 126.036 17.4403C126.039 17.451 126.039 17.462 126.037 17.4728C126.035 17.4836 126.031 17.4939 126.025 17.5031C126.015 17.5158 126.001 17.5255 125.986 17.5309C125.97 17.5362 125.953 17.5371 125.937 17.5333Z" fill="#EBEBEB"/>
<path d="M130.081 16.7607H111.594V35.6H130.081V16.7607Z" fill="#F5F5F5"/>
<path d="M128.534 34.1141V18.2441H113.145V34.1141H128.534Z" fill="white"/>
<path d="M115.346 19.9961H115.077C114.769 19.9961 114.52 20.2349 114.52 20.5296V34.5474C114.52 34.8421 114.769 35.0809 115.077 35.0809H115.346C115.653 35.0809 115.903 34.8421 115.903 34.5474V20.5296C115.903 20.2349 115.653 19.9961 115.346 19.9961Z" fill="#F5F5F5"/>
<path d="M119.823 27.5385H118.846H118.748V24.596C118.748 24.4545 118.689 24.3188 118.585 24.2187C118.481 24.1187 118.339 24.0625 118.192 24.0625H117.219C117.071 24.0625 116.929 24.1187 116.825 24.2187C116.721 24.3188 116.662 24.4545 116.662 24.596V34.5373C116.662 34.6788 116.721 34.8145 116.825 34.9145C116.929 35.0146 117.071 35.0708 117.219 35.0708H118.192C118.31 35.0713 118.426 35.0348 118.521 34.9668C118.614 35.0352 118.729 35.0718 118.846 35.0708H119.823C119.97 35.0708 120.112 35.0146 120.216 34.9145C120.32 34.8145 120.379 34.6788 120.379 34.5373V28.0719C120.379 28.0019 120.365 27.9325 120.337 27.8678C120.309 27.803 120.268 27.7442 120.216 27.6947C120.164 27.6452 120.103 27.6059 120.036 27.5791C119.968 27.5523 119.896 27.5385 119.823 27.5385Z" fill="#F5F5F5"/>
<path d="M125.17 23.5352H121.565C121.258 23.5352 121.009 23.774 121.009 24.0686V34.5435C121.009 34.8381 121.258 35.0769 121.565 35.0769H125.17C125.478 35.0769 125.727 34.8381 125.727 34.5435V24.0686C125.727 23.774 125.478 23.5352 125.17 23.5352Z" fill="#F5F5F5"/>
<path d="M126.035 22.2738C126.976 22.2738 127.739 21.5422 127.739 20.6398C127.739 19.7374 126.976 19.0059 126.035 19.0059C125.093 19.0059 124.33 19.7374 124.33 20.6398C124.33 21.5422 125.093 22.2738 126.035 22.2738Z" fill="#F5F5F5"/>
<path d="M64.0986 74.373C64.0986 76.8726 66.9196 78.9025 70.3986 78.9025C73.8776 78.9025 76.6986 76.8726 76.6986 74.373H64.0986Z" fill="#EBEBEB"/>
<path d="M87.4997 125.502C124.979 125.502 155.361 123.802 155.361 121.704C155.361 119.607 124.979 117.906 87.4997 117.906C50.0208 117.906 19.6382 119.607 19.6382 121.704C19.6382 123.802 50.0208 125.502 87.4997 125.502Z" fill="#F5F5F5"/>
<path d="M119.92 122.076C123.413 122.076 126.245 121.909 126.245 121.703C126.245 121.498 123.413 121.331 119.92 121.331C116.427 121.331 113.596 121.498 113.596 121.703C113.596 121.909 116.427 122.076 119.92 122.076Z" fill="#E6E6E6"/>
<path d="M76.9577 112.896L132.247 112.896C137.629 112.896 141.991 108.714 141.991 103.555V73.5998C141.991 68.441 137.629 64.259 132.247 64.259H76.9577C71.5762 64.259 67.2137 68.441 67.2137 73.5998V103.555C67.2137 108.714 71.5762 112.896 76.9577 112.896Z" fill="#5F5F5F"/>
<path d="M122.605 121.703H117.372L106.739 97.5527H114.747L122.605 121.703Z" fill="#5F5F5F"/>
<path d="M143.567 86.1152H143.217V88.5779H143.567V86.1152Z" fill="#42A6EA"/>
<path opacity="0.2" d="M143.567 86.1152H143.217V88.5779H143.567V86.1152Z" fill="black"/>
<path d="M143.567 75.6172H143.217V84.4346H143.567V75.6172Z" fill="#42A6EA"/>
<path opacity="0.2" d="M143.567 75.6172H143.217V84.4346H143.567V75.6172Z" fill="black"/>
<path d="M99.099 62.75H94.353V63.0855H99.099V62.75Z" fill="#42A6EA"/>
<path opacity="0.2" d="M99.099 62.75H94.353V63.0855H99.099V62.75Z" fill="black"/>
<path d="M137.004 97.5527L122.594 121.703L111.961 97.5527H137.004Z" fill="#42A6EA"/>
<path opacity="0.2" d="M137.008 97.5527L122.598 121.703L111.965 97.5527H137.008Z" fill="black"/>
<path d="M81.3577 112.896L132.248 112.896C137.629 112.896 141.992 108.714 141.992 103.555V73.5998C141.992 68.441 137.629 64.259 132.248 64.259H81.3577C75.9762 64.259 71.6137 68.441 71.6137 73.5998V103.555C71.6137 108.714 75.9762 112.896 81.3577 112.896Z" fill="#42A6EA"/>
<path opacity="0.2" d="M81.3577 112.896L132.248 112.896C137.629 112.896 141.992 108.714 141.992 103.555V73.5998C141.992 68.441 137.629 64.259 132.248 64.259H81.3577C75.9762 64.259 71.6137 68.441 71.6137 73.5998V103.555C71.6137 108.714 75.9762 112.896 81.3577 112.896Z" fill="black"/>
<path opacity="0.7" d="M98.9628 112.896H89.6528L99.5018 64.2598H108.815L98.9628 112.896Z" fill="#42A6EA"/>
<path opacity="0.7" d="M107.374 112.896H102.078L111.931 64.2598H117.223L107.374 112.896Z" fill="#42A6EA"/>
<path d="M129.366 79.9521H103.494C102.795 79.928 102.133 79.6447 101.647 79.1619C101.161 78.6791 100.89 78.0344 100.89 77.3636C100.89 76.6928 101.161 76.0481 101.647 75.5653C102.133 75.0825 102.795 74.7993 103.494 74.7751H129.366C129.729 74.7626 130.091 74.8203 130.43 74.9447C130.769 75.0692 131.078 75.2578 131.34 75.4994C131.601 75.741 131.809 76.0306 131.951 76.3509C132.093 76.6712 132.166 77.0156 132.166 77.3636C132.166 77.7116 132.093 78.056 131.951 78.3763C131.809 78.6966 131.601 78.9862 131.34 79.2278C131.078 79.4694 130.769 79.6581 130.43 79.7825C130.091 79.907 129.729 79.9647 129.366 79.9521Z" fill="white"/>
<path d="M94.6294 79.9521H82.9114C82.2121 79.928 81.5498 79.6447 81.064 79.1619C80.5781 78.6791 80.3066 78.0344 80.3066 77.3636C80.3066 76.6928 80.5781 76.0481 81.064 75.5653C81.5498 75.0825 82.2121 74.7993 82.9114 74.7751H94.6294C94.9922 74.7626 95.3539 74.8203 95.6929 74.9447C96.0319 75.0692 96.3413 75.2578 96.6025 75.4994C96.8638 75.741 97.0716 76.0306 97.2136 76.3509C97.3555 76.6712 97.4286 77.0156 97.4286 77.3636C97.4286 77.7116 97.3555 78.056 97.2136 78.3763C97.0716 78.6966 96.8638 78.9862 96.6025 79.2278C96.3413 79.4694 96.0319 79.6581 95.6929 79.7825C95.3539 79.907 94.9922 79.9647 94.6294 79.9521Z" fill="white"/>
<path d="M129.367 90.8633H85.659C84.9596 90.8391 84.2974 90.5558 83.8115 90.073C83.3257 89.5902 83.0542 88.9456 83.0542 88.2748C83.0542 87.6039 83.3257 86.9593 83.8115 86.4765C84.2974 85.9937 84.9596 85.7104 85.659 85.6862H129.367C129.73 85.6737 130.091 85.7314 130.43 85.8558C130.769 85.9803 131.079 86.169 131.34 86.4106C131.601 86.6522 131.809 86.9417 131.951 87.262C132.093 87.5823 132.166 87.9268 132.166 88.2748C132.166 88.6228 132.093 88.9672 131.951 89.2875C131.809 89.6078 131.601 89.8974 131.34 90.139C131.079 90.3806 130.769 90.5692 130.43 90.6937C130.091 90.8181 129.73 90.8758 129.367 90.8633Z" fill="white"/>
<path d="M129.367 101.77H109.119C108.42 101.746 107.758 101.463 107.272 100.98C106.786 100.497 106.515 99.8528 106.515 99.182C106.515 98.5112 106.786 97.8665 107.272 97.3837C107.758 96.9009 108.42 96.6176 109.119 96.5935H129.367C129.73 96.581 130.091 96.6386 130.43 96.7631C130.769 96.8875 131.079 97.0762 131.34 97.3178C131.601 97.5594 131.809 97.849 131.951 98.1693C132.093 98.4896 132.166 98.834 132.166 99.182C132.166 99.53 132.093 99.8744 131.951 100.195C131.809 100.515 131.601 100.805 131.34 101.046C131.079 101.288 130.769 101.476 130.43 101.601C130.091 101.725 129.73 101.783 129.367 101.77Z" fill="white"/>
<path opacity="0.1" d="M84.252 64.2492C84.252 64.2492 80.381 84.3131 80.381 92.7882C80.381 101.481 83.58 112.886 83.58 112.886H73.3565L72.681 101.877C72.0444 91.5823 73.1075 81.2555 75.831 71.2783L77.749 64.2324L84.252 64.2492Z" fill="black"/>
<path d="M78.9213 121.704C78.9213 122.1 73.1813 122.422 66.1008 122.422C59.0203 122.422 53.2803 122.087 53.2803 121.704C53.2803 121.322 59.0203 120.986 66.1008 120.986C73.1813 120.986 78.9213 121.308 78.9213 121.704Z" fill="#E6E6E6"/>
<path d="M74.5251 38.3247C73.4401 38.4891 72.4251 38.573 71.3751 38.6602C70.3251 38.7474 69.2751 38.7441 68.2251 38.7374C66.0872 38.7371 63.9558 38.5121 61.8691 38.0663C61.2061 37.8931 60.586 37.5942 60.0456 37.1873C59.5911 36.8521 59.163 36.4854 58.7646 36.0901C58.0293 35.3472 57.3509 34.5545 56.7346 33.718C55.5276 32.0996 54.4523 30.3947 53.5181 28.6182L54.8306 27.8633C55.4186 28.6249 56.0241 29.3999 56.6471 30.1414C57.2701 30.8829 57.8896 31.6278 58.5476 32.329C59.1776 33.0216 59.8509 33.6771 60.5636 34.2918C60.8927 34.5751 61.2437 34.8342 61.6136 35.0668C61.8825 35.2493 62.1837 35.3834 62.5026 35.4627C63.4365 35.6129 64.3782 35.7148 65.3236 35.768C66.2861 35.8083 67.2556 35.8318 68.2321 35.8184C69.2086 35.805 70.1886 35.7546 71.1651 35.6875C72.1416 35.6204 73.1391 35.5231 74.0596 35.4158L74.5251 38.3247Z" fill="white"/>
<path d="M77.6754 35.6004C75.0119 34.0537 71.3999 35.1776 71.3999 35.1776L73.2269 41.2169C73.2269 41.2169 76.1109 40.4385 77.2414 39.2609C78.4244 38.043 79.2819 36.5298 77.6754 35.6004Z" fill="#5F5F5F"/>
<path d="M55.0549 28.4913L55.6989 26.4111L52.6504 26.7735C52.8487 27.5993 53.2268 28.3756 53.7599 29.0516L55.0549 28.4913Z" fill="white"/>
<path d="M55.4784 23.9844L52.9409 24.4205L52.6504 26.7725L55.6989 26.4102L55.4784 23.9844Z" fill="white"/>
<path d="M90.1106 16.5229C92.8056 16.5766 92.0496 18.734 92.0496 18.734C92.0496 18.734 94.9861 16.9558 95.9206 19.0326C96.8551 21.1095 94.7481 21.7671 93.5161 22.0791C94.2896 22.5052 94.3316 23.8875 93.2466 24.3405C92.1616 24.7934 90.3451 23.5487 88.9731 23.5654L87.6221 22.0321C89.4561 20.8914 87.4121 16.4693 90.1106 16.5229Z" fill="#5F5F5F"/>
<path d="M89.6912 24.6325C90.8672 24.8304 91.7212 24.6895 91.4902 23.4448C91.3431 22.7537 91.0164 22.1094 90.5404 21.5716C90.0644 21.0338 89.4545 20.6198 88.7672 20.3681C87.2832 19.8447 86.9507 22.1933 86.9507 22.1933L89.6912 24.6325Z" fill="#42A6EA"/>
<path d="M55.2999 111.582L52.2969 111.25L52.8954 104.566L55.8984 104.895L55.2999 111.582Z" fill="white"/>
<path d="M75.1905 119.416L72.1735 119.285L71.5225 112.541L74.543 112.675L75.1905 119.416Z" fill="white"/>
<path d="M72.0576 118.41H75.4526C75.511 118.41 75.5677 118.429 75.6121 118.466C75.6565 118.502 75.6857 118.553 75.6941 118.608L76.0791 121.185C76.0865 121.25 76.0795 121.315 76.0586 121.378C76.0377 121.44 76.0033 121.497 75.9576 121.545C75.912 121.594 75.8562 121.632 75.7939 121.659C75.7316 121.685 75.6642 121.699 75.5961 121.698C74.4131 121.678 73.8461 121.614 72.3481 121.614C71.4311 121.614 70.0871 121.705 68.8201 121.705C67.5531 121.705 67.4866 120.504 68.0116 120.393C70.3811 119.907 70.7556 119.232 71.5536 118.591C71.6937 118.475 71.8725 118.411 72.0576 118.41Z" fill="#5F5F5F"/>
<path d="M52.1953 110.195L55.5658 109.813C55.6243 109.805 55.6837 109.818 55.7327 109.85C55.7817 109.881 55.817 109.929 55.8318 109.984L56.5318 112.497C56.5465 112.561 56.547 112.627 56.5334 112.691C56.5197 112.754 56.4922 112.815 56.4526 112.868C56.413 112.921 56.3622 112.966 56.3035 112.999C56.2448 113.032 56.1795 113.053 56.1118 113.06C54.9358 113.175 54.3618 113.175 52.8778 113.342C51.9678 113.446 50.0778 113.752 48.8318 113.893C47.5858 114.033 47.3583 112.849 47.8693 112.681C50.1618 111.93 51.0018 111.158 51.7193 110.43C51.8449 110.301 52.0131 110.218 52.1953 110.195Z" fill="#5F5F5F"/>
<path d="M52.8984 104.566L52.5869 108.012L55.5899 108.344L55.9014 104.899L52.8984 104.566Z" fill="white"/>
<path d="M74.543 112.676L71.5225 112.545L71.8585 116.021L74.879 116.152L74.543 112.676Z" fill="white"/>
<path d="M74.7495 34.832C74.7495 34.832 73.227 34.9226 71.1655 52.0273L82.971 55.2348C84.1365 50.5745 84.9695 47.7326 90.062 38.9052C88.5062 38.123 86.8931 37.4502 85.2355 36.8921C83.4865 36.2854 81.6946 35.7988 79.8735 35.436C77.511 35.03 74.7495 34.832 74.7495 34.832Z" fill="#5F5F5F"/>
<path d="M86.4148 30.9805C85.5888 32.5406 84.3533 35.4797 85.2353 36.909C85.2353 36.909 84.2658 38.4591 81.0633 37.5801C77.5388 36.6239 79.8733 35.4462 79.8733 35.4462C81.9278 35.5301 82.2813 34.1477 82.3233 32.7621L86.4148 30.9805Z" fill="white"/>
<path d="M76.5729 35C77.5389 35.1007 78.7534 35.2516 79.8734 35.4529C81.6947 35.8149 83.4866 36.3016 85.2354 36.9091C86.2399 37.2446 87.2129 37.6137 88.0144 37.9593C87.8499 38.5196 86.6914 41.4352 79.7999 39.7576C73.3879 38.174 75.8414 35.5704 76.5729 35Z" fill="white"/>
<path d="M84.7486 31.7051L82.3301 32.7687C82.3241 33.0908 82.289 33.4119 82.2251 33.7282C82.9881 33.8255 84.2831 33.4967 84.5806 32.7787C84.7017 32.433 84.7585 32.0696 84.7486 31.7051Z" fill="white"/>
<path d="M87.9515 27.3067C87.227 30.0948 86.9855 31.2926 85.2215 32.477C82.5685 34.2619 79.149 32.8125 78.988 29.8633C78.841 27.2161 80.038 23.0993 83.1425 22.4819C83.8248 22.3431 84.5328 22.3738 85.1992 22.5711C85.8656 22.7684 86.4684 23.1257 86.9502 23.6091C87.432 24.0925 87.7769 24.686 87.9522 25.3331C88.1275 25.9803 88.1272 26.6596 87.9515 27.3067Z" fill="white"/>
<path d="M87.0065 29.9973C86.128 29.5612 85.4245 28.3198 86.6915 27.1656C86.6915 27.1656 84.9415 26.2094 85.82 24.8908C86.6985 23.5722 90.209 22.4751 90.7585 24.2466C91.308 26.0181 89.6 26.7462 89.6 26.7462C89.6 26.7462 91 28.7996 88.4835 29.4773C88.4835 29.4773 88.2665 32.4399 86.4605 31.1213L87.0065 29.9973Z" fill="#5F5F5F"/>
<path d="M87.9197 29.9341C87.7531 30.4648 87.3762 30.9117 86.8697 31.1789C86.1907 31.5144 85.6867 30.981 85.7357 30.2864C85.7812 29.659 86.1907 28.7229 86.9362 28.6659C87.0996 28.6561 87.263 28.6856 87.4115 28.7517C87.56 28.8178 87.689 28.9184 87.7867 29.0444C87.8843 29.1704 87.9477 29.3177 87.9709 29.4731C87.9941 29.6285 87.9765 29.7869 87.9197 29.9341Z" fill="white"/>
<path d="M71.1653 52.0273C71.1653 52.0273 57.4523 67.5316 55.1318 76.0805C52.7168 84.9717 51.6318 106.948 51.6318 106.948L56.3498 107.532C56.3498 107.532 59.4998 87.4243 63.4653 79.231C67.6863 70.5076 79.8278 54.3827 79.8278 54.3827L71.1653 52.0273Z" fill="#42A6EA"/>
<path d="M56.9796 107.606L50.9771 106.854L50.8721 105.277L57.4766 106.562L56.9796 107.606Z" fill="#42A6EA"/>
<path opacity="0.3" d="M56.9796 107.606L50.9771 106.854L50.8721 105.277L57.4766 106.562L56.9796 107.606Z" fill="black"/>
<path opacity="0.2" d="M70.9308 59.0762C69.8089 62.885 68.9645 66.764 68.4038 70.685C69.6568 68.739 70.9763 66.7696 72.2538 64.9041C72.7193 63.9177 73.1953 62.9413 73.6538 61.9885C73.6538 61.9885 73.6538 61.9683 73.6538 61.9549L70.9308 59.0762Z" fill="black"/>
<path d="M74.2839 52.873C74.2839 52.873 70.3149 72.4571 68.8799 83.7104C67.7179 92.8029 71.3754 114.856 71.3754 114.856L75.3094 115.088C75.3094 115.088 74.4799 95.3931 76.3069 86.5857C80.9339 64.3041 85.2599 61.3146 82.9569 55.2351L74.2839 52.873Z" fill="#42A6EA"/>
<path d="M75.7958 115.114L70.7033 114.816L70.4653 113.427L75.9813 113.977L75.7958 115.114Z" fill="#42A6EA"/>
<path opacity="0.3" d="M75.7958 115.114L70.7033 114.816L70.4653 113.427L75.9813 113.977L75.7958 115.114Z" fill="black"/>
<path d="M83.3453 54.6168L83.5763 55.7744C83.5938 55.865 83.4748 55.9186 83.3383 55.8817L70.9588 52.5266C70.8503 52.4997 70.7768 52.4259 70.7908 52.3588L70.9833 51.3187C70.9833 51.2449 71.1058 51.2113 71.2213 51.2415L83.1773 54.4893C83.2137 54.4965 83.2479 54.5118 83.2771 54.5339C83.3063 54.5561 83.3296 54.5845 83.3453 54.6168Z" fill="#42A6EA"/>
<path opacity="0.4" d="M83.3453 54.6168L83.5763 55.7744C83.5938 55.865 83.4748 55.9186 83.3383 55.8817L70.9588 52.5266C70.8503 52.4997 70.7768 52.4259 70.7908 52.3588L70.9833 51.3187C70.9833 51.2449 71.1058 51.2113 71.2213 51.2415L83.1773 54.4893C83.2137 54.4965 83.2479 54.5118 83.2771 54.5339C83.3063 54.5561 83.3296 54.5845 83.3453 54.6168Z" fill="black"/>
<path d="M81.361 55.4635L81.6795 55.5507C81.7425 55.5675 81.802 55.5507 81.809 55.5105L82.047 54.1684C82.047 54.1281 82.0085 54.0812 81.9455 54.0644L81.6235 53.9772C81.5605 53.9604 81.5045 53.9772 81.4975 54.0174L81.256 55.3595C81.249 55.3997 81.298 55.4467 81.361 55.4635Z" fill="#42A6EA"/>
<path d="M71.8231 52.8727L72.1451 52.96C72.2081 52.9767 72.2676 52.96 72.2746 52.9197L72.5126 51.5776C72.5126 51.5407 72.4741 51.4937 72.4076 51.477L72.0891 51.3897C72.0261 51.3696 71.9666 51.3897 71.9596 51.43L71.7216 52.7721C71.7146 52.809 71.7496 52.8425 71.8231 52.8727Z" fill="#42A6EA"/>
<path d="M76.594 54.1847L76.9125 54.2719C76.9755 54.2719 77.035 54.2719 77.042 54.2316L77.28 52.8896C77.28 52.8493 77.2415 52.8023 77.1785 52.7856L76.8565 52.6983C76.7935 52.6782 76.734 52.6983 76.727 52.7386L76.489 54.0807C76.482 54.1041 76.5275 54.1511 76.594 54.1847Z" fill="#42A6EA"/>
<path d="M83.3352 27.3097C83.2897 27.5379 83.1287 27.7023 82.9852 27.6754C82.8417 27.6486 82.7367 27.4372 82.7822 27.2091C82.8277 26.9809 82.9887 26.8132 83.1322 26.8434C83.2757 26.8736 83.3772 27.0782 83.3352 27.3097Z" fill="#5F5F5F"/>
<path d="M80.6258 26.8305C80.5803 27.062 80.4193 27.2264 80.2758 27.1962C80.1323 27.166 80.0273 26.9614 80.0728 26.7332C80.1183 26.5051 80.2793 26.3373 80.4228 26.3642C80.5663 26.391 80.6678 26.6024 80.6258 26.8305Z" fill="#5F5F5F"/>
<path d="M80.5 26.3906L79.9575 26.1289C79.9575 26.1289 80.15 26.612 80.5 26.3906Z" fill="#5F5F5F"/>
<path d="M81.2664 27.3438C80.9513 27.8296 80.5686 28.2721 80.1289 28.659C80.2354 28.7638 80.3645 28.8452 80.5071 28.8974C80.6498 28.9495 80.8026 28.9712 80.9549 28.9609L81.2664 27.3438Z" fill="white"/>
<path d="M82.0469 30.0636C81.9047 30.0627 81.763 30.0492 81.6234 30.0234C81.6054 30.0201 81.5894 30.0102 81.5789 29.9957C81.5685 29.9813 81.5643 29.9635 81.5674 29.9462C81.5708 29.928 81.5815 29.9119 81.5972 29.9012C81.6129 29.8906 81.6324 29.8862 81.6514 29.8891C81.9483 29.9476 82.2554 29.9383 82.5478 29.8619C82.8403 29.7856 83.1099 29.6443 83.3349 29.4496C83.3488 29.4386 83.3665 29.433 83.3845 29.4337C83.4025 29.4343 83.4197 29.4414 83.4326 29.4534C83.4456 29.4654 83.4535 29.4816 83.4549 29.4988C83.4562 29.5161 83.4509 29.5332 83.4399 29.5469C83.0621 29.8844 82.5632 30.0694 82.0469 30.0636Z" fill="#5F5F5F"/>
<path d="M84.3496 26.6158C84.3236 26.616 84.2979 26.6092 84.2757 26.5961C84.2534 26.5831 84.2354 26.5644 84.2236 26.542C84.1473 26.386 84.0337 26.2494 83.892 26.1433C83.7503 26.0372 83.5846 25.9646 83.4081 25.9314C83.388 25.9314 83.368 25.9273 83.3496 25.9194C83.3312 25.9115 83.3147 25.9 83.3012 25.8856C83.2878 25.8711 83.2776 25.8542 83.2715 25.8357C83.2653 25.8173 83.2633 25.7978 83.2655 25.7786C83.2678 25.7594 83.2742 25.7408 83.2844 25.7241C83.2946 25.7075 83.3084 25.693 83.3248 25.6818C83.3413 25.6706 83.36 25.6628 83.3798 25.659C83.3996 25.6551 83.42 25.6554 83.4396 25.6596C83.6654 25.6956 83.8788 25.7833 84.0616 25.9153C84.2444 26.0474 84.3913 26.2198 84.4896 26.4179C84.5067 26.4504 84.5097 26.488 84.4979 26.5226C84.4861 26.5572 84.4605 26.5859 84.4266 26.6024C84.4027 26.6133 84.3761 26.6179 84.3496 26.6158Z" fill="#5F5F5F"/>
<path d="M79.6494 25.421C79.6311 25.4209 79.613 25.4173 79.5961 25.4104C79.5793 25.4035 79.5641 25.3934 79.5514 25.3807C79.5376 25.3682 79.5267 25.3531 79.5192 25.3364C79.5117 25.3196 79.5078 25.3016 79.5078 25.2834C79.5078 25.2652 79.5117 25.2472 79.5192 25.2305C79.5267 25.2138 79.5376 25.1987 79.5514 25.1861C79.7062 25.0268 79.8984 24.905 80.112 24.8309C80.3256 24.7568 80.5545 24.7325 80.7799 24.76C80.8165 24.7681 80.8485 24.7892 80.8693 24.8192C80.8901 24.8491 80.8982 24.8856 80.8919 24.9211C80.8886 24.9389 80.8815 24.9558 80.8712 24.9709C80.8608 24.9861 80.8474 24.999 80.8317 25.0091C80.8161 25.0191 80.7984 25.026 80.7799 25.0293C80.7613 25.0326 80.7423 25.0323 80.7239 25.0284C80.5467 25.0078 80.3669 25.0274 80.1991 25.0857C80.0313 25.144 79.8802 25.2393 79.7579 25.364C79.7454 25.3806 79.7292 25.3944 79.7104 25.4043C79.6916 25.4141 79.6708 25.4198 79.6494 25.421Z" fill="#5F5F5F"/>
<path d="M90.4297 42.083C90.6677 43.1097 90.8182 44.076 90.9582 45.0758C91.0982 46.0757 91.1717 47.0889 91.2312 48.0753C91.355 50.1217 91.2459 52.1748 90.9057 54.1985C90.7665 54.8438 90.4926 55.4555 90.1007 55.9969C89.784 56.4514 89.433 56.8831 89.0507 57.2886C88.3225 58.0404 87.5401 58.7423 86.7092 59.3889C85.0948 60.6424 83.3817 61.7742 81.5852 62.7743L80.7207 61.5665C81.4767 60.9558 82.2467 60.3284 82.9817 59.6909C83.7167 59.0534 84.4552 58.4092 85.1412 57.7382C85.8257 57.093 86.4685 56.4084 87.0662 55.6882C87.3403 55.3574 87.5883 55.0075 87.8082 54.6414C87.9795 54.3724 88.0982 54.0756 88.1582 53.7657C88.2593 52.8631 88.3084 51.9558 88.3052 51.048C88.3052 50.122 88.2527 49.1926 88.1792 48.2599C88.1057 47.3271 87.9937 46.3944 87.8642 45.4617C87.7347 44.5289 87.5737 43.5828 87.4057 42.7104L90.4297 42.083Z" fill="white"/>
<path d="M90.0621 38.9056C91.1401 39.5766 91.4096 43.8612 91.4096 43.8612L85.89 45.7602C85.89 45.7602 85.19 42.046 86.1105 40.7274C87.08 39.3283 88.8266 38.144 90.0621 38.9056Z" fill="#5F5F5F"/>
<path d="M71.0218 118.916C70.8178 118.933 70.6141 118.88 70.4478 118.765C70.3973 118.719 70.3599 118.662 70.339 118.599C70.3182 118.535 70.3147 118.468 70.3288 118.403C70.3324 118.361 70.3477 118.321 70.3729 118.287C70.3981 118.252 70.4324 118.225 70.4723 118.208C70.8223 118.054 71.7393 118.624 71.8443 118.688C71.8558 118.696 71.8648 118.706 71.8703 118.719C71.8759 118.731 71.8778 118.745 71.8758 118.758C71.8724 118.771 71.8654 118.783 71.8555 118.793C71.8457 118.802 71.8333 118.809 71.8198 118.812C71.5588 118.876 71.2911 118.91 71.0218 118.916ZM70.6228 118.319C70.5928 118.313 70.5618 118.313 70.5318 118.319C70.514 118.326 70.4989 118.338 70.4883 118.354C70.4777 118.369 70.4721 118.387 70.4723 118.406C70.461 118.449 70.4615 118.494 70.4737 118.537C70.486 118.58 70.5096 118.619 70.5423 118.651C70.6963 118.785 71.0918 118.802 71.6203 118.701C71.3182 118.51 70.9789 118.38 70.6228 118.319Z" fill="#42A6EA"/>
<path d="M71.8057 118.815C71.7943 118.819 71.7821 118.819 71.7707 118.815C71.4802 118.658 70.9307 118.034 71.0007 117.708C71.0107 117.654 71.0405 117.605 71.0847 117.57C71.129 117.535 71.1848 117.516 71.2422 117.517C71.2963 117.51 71.3513 117.514 71.4033 117.53C71.4553 117.546 71.5031 117.572 71.5432 117.607C71.8722 117.886 71.8932 118.721 71.8932 118.755C71.8933 118.767 71.8901 118.779 71.884 118.79C71.8779 118.8 71.869 118.809 71.8582 118.815C71.8499 118.819 71.841 118.821 71.832 118.821C71.823 118.821 71.814 118.819 71.8057 118.815ZM71.2912 117.641H71.2562C71.1652 117.641 71.1477 117.688 71.1407 117.722C71.0987 117.92 71.4417 118.393 71.7287 118.611C71.7361 118.286 71.6383 117.967 71.4487 117.698C71.4056 117.661 71.3493 117.64 71.2912 117.641Z" fill="#42A6EA"/>
<path d="M50.8654 110.844C50.6965 110.854 50.5282 110.815 50.3824 110.733C50.3297 110.698 50.2869 110.65 50.2576 110.595C50.2283 110.54 50.2135 110.479 50.2144 110.418C50.2117 110.379 50.2194 110.341 50.2365 110.307C50.2537 110.272 50.2798 110.242 50.3124 110.22C50.6624 109.985 51.9224 110.435 52.0624 110.488C52.0765 110.493 52.0885 110.502 52.0967 110.515C52.1049 110.527 52.1088 110.541 52.1079 110.555C52.1078 110.57 52.103 110.583 52.0942 110.595C52.0854 110.606 52.073 110.615 52.0589 110.619C51.6741 110.748 51.2723 110.823 50.8654 110.844ZM50.6134 110.29C50.5371 110.285 50.4606 110.3 50.3929 110.334C50.3802 110.342 50.3702 110.354 50.364 110.368C50.3578 110.381 50.3557 110.396 50.3579 110.411C50.3563 110.452 50.3654 110.493 50.3843 110.53C50.4032 110.567 50.4314 110.599 50.4664 110.622C50.6659 110.757 51.1664 110.73 51.8139 110.549C51.4282 110.409 51.0241 110.322 50.6134 110.29Z" fill="#42A6EA"/>
<path d="M52.0413 110.622H52.0203C51.6423 110.508 50.8583 109.968 50.8758 109.636C50.8758 109.555 50.9213 109.455 51.1173 109.411C51.1872 109.397 51.2595 109.396 51.3298 109.408C51.4002 109.421 51.4671 109.447 51.5268 109.485C51.9398 109.743 52.1043 110.508 52.1113 110.542C52.1136 110.553 52.1128 110.565 52.1092 110.576C52.1055 110.587 52.099 110.597 52.0903 110.606C52.0768 110.617 52.0593 110.623 52.0413 110.622ZM51.2363 109.532C51.2072 109.529 51.1778 109.529 51.1488 109.532C51.0193 109.559 51.0193 109.609 51.0158 109.626C51.0158 109.827 51.5478 110.26 51.9398 110.431C51.8706 110.107 51.6981 109.812 51.4463 109.586C51.3815 109.554 51.3088 109.54 51.2363 109.545V109.532Z" fill="#42A6EA"/>
<path opacity="0.6" d="M64.932 25.827C60.8592 24.9186 56.6065 25.0761 52.6188 26.283C48.6312 27.4899 45.0551 29.7019 42.2647 32.6875C39.4744 35.6731 37.5722 39.3227 36.7572 43.2544C35.9422 47.1862 36.2444 51.2556 37.632 55.0371L30.8315 61.9756L41.118 61.2106C43.3918 64.0645 46.3486 66.3518 49.7389 67.8794C53.1291 69.407 56.853 70.13 60.5961 69.9872C64.3392 69.8445 67.9915 68.8402 71.2443 67.0592C74.4972 65.2782 77.2552 62.7729 79.2852 59.7548C81.3152 56.7368 82.5577 53.2947 82.9076 49.7194C83.2575 46.1441 82.7046 42.5405 81.2956 39.2132C79.8866 35.8859 77.6629 32.9325 74.8123 30.6026C71.9618 28.2727 68.5681 26.6347 64.918 25.827H64.932Z" fill="#42A6EA"/>
<path opacity="0.1" d="M64.932 25.827C60.8592 24.9186 56.6065 25.0761 52.6188 26.283C48.6312 27.4899 45.0551 29.7019 42.2647 32.6875C39.4744 35.6731 37.5722 39.3227 36.7572 43.2544C35.9422 47.1862 36.2444 51.2556 37.632 55.0371L30.8315 61.9756L41.118 61.2106C43.3918 64.0645 46.3486 66.3518 49.7389 67.8794C53.1291 69.407 56.853 70.13 60.5961 69.9872C64.3392 69.8445 67.9915 68.8402 71.2443 67.0592C74.4972 65.2782 77.2552 62.7729 79.2852 59.7548C81.3152 56.7368 82.5577 53.2947 82.9076 49.7194C83.2575 46.1441 82.7046 42.5405 81.2956 39.2132C79.8866 35.8859 77.6629 32.9325 74.8123 30.6026C71.9618 28.2727 68.5681 26.6347 64.918 25.827H64.932Z" fill="black"/>
<path d="M59.6891 68.9173C56.2727 68.9167 52.9022 68.1625 49.8385 66.7133C46.7748 65.264 44.1 63.1585 42.0211 60.5596L41.6501 60.0765L33.8031 60.6603C33.7933 60.6597 33.7838 60.657 33.7753 60.6524C33.7668 60.6477 33.7595 60.6412 33.7541 60.6334C33.7492 60.6253 33.7466 60.616 33.7466 60.6066C33.7466 60.5971 33.7492 60.5879 33.7541 60.5797L38.9376 55.3021L38.7101 54.6746C37.5339 51.4664 37.1769 48.0346 37.669 44.6668C38.161 41.2991 39.4878 38.0934 41.5382 35.3183C43.5885 32.5432 46.3027 30.2795 49.4534 28.7169C52.6042 27.1542 56.0996 26.3381 59.6471 26.3369C62.9903 26.3354 66.2908 27.0573 69.3024 28.4488C72.3141 29.8403 74.9593 31.8654 77.0408 34.3733C79.1224 36.8812 80.5866 39.8072 81.3243 42.933C82.0621 46.0589 82.0543 49.3041 81.3016 52.4267C80.1897 57.1204 77.4434 61.3111 73.5149 64.3086C69.5864 67.3061 64.7101 68.9316 59.6891 68.9173ZM41.6711 59.9792C41.6787 59.9794 41.6861 59.9814 41.6928 59.9849C41.6995 59.9884 41.7052 59.9933 41.7096 59.9993L42.1016 60.4925C44.1689 63.0825 46.8308 65.1813 49.8809 66.626C52.9309 68.0708 56.287 68.8227 59.6891 68.8234C65.1157 68.817 70.3504 66.8977 74.3963 63.4309C78.4423 59.9641 81.0169 55.192 81.63 50.0233C82.243 44.8545 80.8517 39.6501 77.721 35.4011C74.5902 31.1521 69.9387 28.1552 64.6521 26.9811C63.0109 26.6165 61.3318 26.4319 59.6471 26.4309C56.1163 26.4339 52.6376 27.2478 49.5023 28.8044C46.367 30.3611 43.6664 32.6151 41.6265 35.3778C39.5866 38.1405 38.2668 41.3314 37.7777 44.6835C37.2886 48.0356 37.6443 51.4512 38.8151 54.6444L39.0531 55.2987C39.0582 55.3055 39.061 55.3138 39.061 55.3222C39.061 55.3306 39.0582 55.3388 39.0531 55.3457L33.9256 60.5596L41.6676 59.9825L41.6711 59.9792Z" fill="white"/>
<path d="M67.7667 43.8175C67.8214 43.6961 67.8326 43.5607 67.7983 43.4326C67.7641 43.3045 67.6865 43.1909 67.5777 43.1096C66.3699 42.266 64.9919 41.6729 63.5317 41.3683C61.0307 40.8156 58.4031 41.2369 56.2258 42.5396C54.0485 43.8424 52.4994 45.9202 51.9187 48.3168C51.1137 51.6485 53.0212 53.9099 55.3207 54.4198C56.2709 54.6496 57.2643 54.6616 58.2202 54.4546C59.1761 54.2477 60.0677 53.8277 60.8227 53.2288C60.842 53.9438 61.1155 54.631 61.5981 55.1765C62.0806 55.722 62.7431 56.0931 63.4757 56.2283C67.0702 57.0268 71.4627 54.7151 72.9012 48.7563C74.4517 42.3413 70.8257 36.8153 64.0882 35.3357C55.9962 33.5407 48.4082 38.3285 46.4412 46.4748C44.8032 53.2657 48.6147 59.3016 55.5027 60.8316C58.2362 61.4389 60.4797 61.4489 62.7757 60.8685C62.9211 60.8314 63.0474 60.7449 63.1311 60.6252C63.2148 60.5054 63.2502 60.3605 63.2307 60.2176L63.0067 58.54C62.9945 58.4552 62.9634 58.374 62.9158 58.3016C62.8681 58.2293 62.8048 58.1676 62.7302 58.1206C62.6561 58.0727 62.5718 58.0412 62.4834 58.0285C62.395 58.0157 62.3048 58.0219 62.2192 58.0468C60.3816 58.4936 58.4568 58.4936 56.6192 58.0468C51.2572 56.8557 48.5307 52.4168 49.8397 46.9949C51.4147 40.4624 57.0042 36.7079 63.1397 38.0668C68.3267 39.2176 70.7802 43.0995 69.5447 48.243C69.0022 50.4876 67.8857 52.2457 66.4787 53.0711C65.962 53.4156 65.3238 53.5495 64.7042 53.4435C64.6114 53.429 64.5236 53.393 64.4486 53.3387C64.3736 53.2843 64.3135 53.2132 64.2737 53.1315C64.1232 52.8362 64.0147 52.0343 64.9737 50.0112L67.7667 43.8175ZM62.3487 44.3174C62.7402 44.4032 63.1222 44.5245 63.4897 44.6798L61.9637 48.035C61.1027 49.9743 58.7262 51.927 56.9587 51.5344C55.3452 51.1788 55.4292 49.7864 55.6217 48.9912C56.3847 45.8172 59.4682 43.68 62.3487 44.3174Z" fill="white"/>
<path d="M81.3747 61.3109L78.7217 59.8682L79.2852 62.7637C79.2852 62.7637 81.1262 63.3475 82.0362 62.5154L81.3747 61.3109Z" fill="white"/>
<path d="M76.209 60.2272L76.818 62.6261L79.2855 62.7637L78.722 59.8682L76.209 60.2272Z" fill="white"/>
<path d="M83.1983 26.8672L82.6523 26.6055C82.6523 26.6055 82.8658 27.0886 83.1983 26.8672Z" fill="#5F5F5F"/>
<path d="M86.9502 25.5416C85.4522 25.451 84.3532 24.8203 84.2062 23.9915C84.2062 23.9915 80.7692 25.3605 79.3797 23.3205C79.3797 23.3205 77.8117 23.5688 77.4232 22.522C77.0347 21.4752 78.6657 21.1799 79.4357 21.6496C79.4357 21.6496 77.0487 19.6365 79.4987 19.0762C81.9487 18.5159 82.4737 20.4183 82.4737 20.4183C82.4737 20.4183 83.4397 17.6402 85.6237 18.8749C87.8077 20.1096 86.4497 21.3041 86.4497 21.3041C86.4497 21.3041 91.6367 21.6899 89.7047 23.6527C87.7727 25.6154 86.9502 25.5416 86.9502 25.5416Z" fill="#5F5F5F"/>
<path d="M85.0744 35.1844C85.3684 35.2112 85.2389 36.1909 85.1059 36.258C84.8014 36.4157 81.1334 35.6944 81.2559 35.1508C81.3825 34.8897 81.5581 34.6532 81.7739 34.4529C81.9349 34.3389 82.4949 34.9797 85.0744 35.1844Z" fill="#5F5F5F"/>
<path d="M104.23 42.8672C102.746 42.8628 101.315 43.399 100.227 44.3674C99.1395 45.3358 98.476 46.6641 98.3711 48.0836C98.2662 49.5031 98.7276 50.9078 99.662 52.0136C100.596 53.1193 101.934 53.8436 103.404 54.0399C103.434 55.4575 102.915 56.8354 101.948 57.9084C101.948 57.9084 110.089 55.9658 110.089 48.4838C110.089 46.9942 109.472 45.5656 108.373 44.5123C107.274 43.459 105.784 42.8672 104.23 42.8672Z" fill="#42A6EA"/>
<path d="M117.414 42.8672C115.93 42.8628 114.499 43.399 113.411 44.3674C112.324 45.3358 111.66 46.6641 111.555 48.0836C111.45 49.5031 111.912 50.9078 112.846 52.0136C113.78 53.1193 115.118 53.8436 116.588 54.0399C116.623 55.4553 116.11 56.8329 115.15 57.9084C115.15 57.9084 123.291 55.9658 123.291 48.4838C123.291 47.7447 123.14 47.0127 122.844 46.33C122.549 45.6473 122.116 45.0272 121.57 44.5053C121.024 43.9835 120.375 43.5701 119.662 43.289C118.949 43.0079 118.185 42.8646 117.414 42.8672Z" fill="#42A6EA"/>
</svg>
