<svg width="48" height="48" viewBox="0 0 48 48" fill="none" xmlns="http://www.w3.org/2000/svg">
<path d="M12 13.5C10.8133 13.5 9.65327 13.1481 8.66658 12.4888C7.67988 11.8295 6.91085 10.8925 6.45672 9.7961C6.0026 8.69975 5.88378 7.49335 6.11529 6.32946C6.3468 5.16558 6.91824 4.09648 7.75736 3.25736C8.59647 2.41825 9.66557 1.8468 10.8295 1.61529C11.9933 1.38378 13.1997 1.5026 14.2961 1.95673C15.3925 2.41085 16.3295 3.17989 16.9888 4.16658C17.6481 5.15328 18 6.31331 18 7.5C18 9.0913 17.3679 10.6174 16.2426 11.7426C15.1174 12.8679 13.5913 13.5 12 13.5ZM12 4.5C11.4067 4.5 10.8266 4.67595 10.3333 5.00559C9.83994 5.33524 9.45542 5.80377 9.22836 6.35195C9.0013 6.90013 8.94189 7.50333 9.05764 8.08527C9.1734 8.66722 9.45912 9.20177 9.87868 9.62132C10.2982 10.0409 10.8328 10.3266 11.4147 10.4424C11.9967 10.5581 12.5999 10.4987 13.1481 10.2716C13.6962 10.0446 14.1648 9.66006 14.4944 9.16671C14.8241 8.67337 15 8.09335 15 7.5C15 6.70435 14.6839 5.94129 14.1213 5.37868C13.5587 4.81607 12.7956 4.5 12 4.5ZM36 13.5C34.8133 13.5 33.6533 13.1481 32.6666 12.4888C31.6799 11.8295 30.9108 10.8925 30.4567 9.7961C30.0026 8.69975 29.8838 7.49335 30.1153 6.32946C30.3468 5.16558 30.9182 4.09648 31.7574 3.25736C32.5965 2.41825 33.6656 1.8468 34.8295 1.61529C35.9933 1.38378 37.1997 1.5026 38.2961 1.95673C39.3925 2.41085 40.3295 3.17989 40.9888 4.16658C41.6481 5.15328 42 6.31331 42 7.5C42 9.0913 41.3679 10.6174 40.2426 11.7426C39.1174 12.8679 37.5913 13.5 36 13.5ZM36 4.5C35.4067 4.5 34.8266 4.67595 34.3333 5.00559C33.8399 5.33524 33.4554 5.80377 33.2284 6.35195C33.0013 6.90013 32.9419 7.50333 33.0576 8.08527C33.1734 8.66722 33.4591 9.20177 33.8787 9.62132C34.2982 10.0409 34.8328 10.3266 35.4147 10.4424C35.9967 10.5581 36.5999 10.4987 37.1481 10.2716C37.6962 10.0446 38.1648 9.66006 38.4944 9.16671C38.8241 8.67337 39 8.09335 39 7.5C39 6.70435 38.6839 5.94129 38.1213 5.37868C37.5587 4.81607 36.7957 4.5 36 4.5ZM39 45H33C32.2044 45 31.4413 44.6839 30.8787 44.1213C30.3161 43.5587 30 42.7957 30 42V31.5H33V42H39V28.5H42V19.5C42 19.1022 41.842 18.7206 41.5607 18.4393C41.2794 18.158 40.8978 18 40.5 18H30.87L24 30L17.13 18H7.5C7.10218 18 6.72064 18.158 6.43934 18.4393C6.15804 18.7206 6 19.1022 6 19.5V28.5H9V42H15V31.5H18V42C18 42.7957 17.6839 43.5587 17.1213 44.1213C16.5587 44.6839 15.7956 45 15 45H9C8.20435 45 7.44129 44.6839 6.87868 44.1213C6.31607 43.5587 6 42.7957 6 42V31.5C5.20435 31.5 4.44129 31.1839 3.87868 30.6213C3.31607 30.0587 3 29.2957 3 28.5V19.5C3 18.3065 3.47411 17.1619 4.31802 16.318C5.16193 15.4741 6.30653 15 7.5 15H18.87L24 24L29.13 15H40.5C41.6935 15 42.8381 15.4741 43.682 16.318C44.5259 17.1619 45 18.3065 45 19.5V28.5C45 29.2957 44.6839 30.0587 44.1213 30.6213C43.5587 31.1839 42.7957 31.5 42 31.5V42C42 42.7957 41.6839 43.5587 41.1213 44.1213C40.5587 44.6839 39.7957 45 39 45Z" fill="#EAA001"/>
</svg>
