<svg width="48" height="48" viewBox="0 0 48 48" fill="none" xmlns="http://www.w3.org/2000/svg">
<path d="M45.3331 41.333C43.8665 41.1996 42.5331 40.6663 41.3331 39.733C40.6665 39.0663 39.7331 38.6663 38.6665 38.6663C37.7331 38.6663 36.6665 39.0663 35.9998 39.733C34.7998 40.7996 33.3331 41.1996 31.8665 41.1996C30.2665 41.1996 28.6665 40.6663 27.4665 39.733C25.8665 38.2663 23.4665 38.2663 21.9998 39.733C20.7998 40.7996 19.1998 41.333 17.4665 41.333C15.8665 41.333 14.3998 40.7996 13.1998 39.733C12.3998 39.0663 11.4665 38.6663 10.5331 38.6663C9.46647 38.6663 8.26647 39.0663 7.46647 39.733C6.13314 40.7996 4.3998 41.333 2.7998 41.1996V38.6663C3.86647 38.6663 5.06647 38.2663 5.86647 37.4663C7.19981 36.3996 8.79981 35.8663 10.3998 35.9996C11.9998 35.9996 13.5998 36.533 14.7998 37.5996C16.3998 39.0663 18.7998 39.0663 20.3998 37.5996C22.9331 35.4663 26.6665 35.4663 29.0665 37.5996C30.6665 39.0663 33.0665 39.0663 34.5331 37.5996C35.7331 36.533 37.3331 35.9996 38.9331 35.9996C40.3998 35.9996 41.8665 36.533 42.9331 37.5996C43.7331 38.2663 43.9998 38.6663 45.3331 38.6663V41.333Z" fill="#168CE1"/>
<path d="M5.46634 34.9337C6.26634 34.267 7.06634 33.867 7.99967 33.6003V30.667C7.99967 29.867 8.53301 29.2003 9.33301 29.2003H42.6663L37.8663 33.3337H38.133C39.1997 33.3337 40.2663 33.6003 41.0663 34.0003L44.3997 31.067L44.6663 30.8003C45.5997 29.6003 45.333 28.0003 44.133 27.067C43.8663 26.8003 43.1997 26.667 42.6663 26.667H9.33301C7.06634 26.667 5.33301 28.4003 5.33301 30.667L5.46634 34.9337Z" fill="#168CE1"/>
<path d="M19.8669 25.2001H11.8669C10.4002 25.2001 9.2002 24.0001 9.2002 22.5335C9.2002 22.0001 9.33353 21.4668 9.73353 20.9335L15.2002 13.2001C16.0002 12.0001 17.7335 11.7335 18.9335 12.5335C19.6002 13.0668 20.0002 13.8668 20.0002 14.6668V25.2001H19.8669Z" fill="#168CE1"/>
<path d="M32.3997 25.1995H21.333V8.53288C21.333 7.06621 22.533 5.86621 23.9997 5.86621C24.933 5.86621 25.733 6.39954 26.2663 7.19954L34.6663 21.0662C35.4663 22.3995 34.933 23.9995 33.733 24.6662C33.333 24.9329 32.7997 25.0662 32.3997 25.1995Z" fill="#168CE1"/>
</svg>
