<svg width="48" height="40" viewBox="0 0 48 40" fill="none" xmlns="http://www.w3.org/2000/svg">
<path d="M41.0644 9.37507C41.2319 9.37507 41.3925 9.30922 41.511 9.19201C41.6294 9.0748 41.696 8.91583 41.696 8.75007V6.66882C41.6953 6.12599 41.4771 5.60558 41.0892 5.22175C40.7013 4.83791 40.1755 4.62198 39.6269 4.62132H36.2328L35.4585 2.36007C35.4059 2.20629 35.2948 2.07881 35.1489 2.00462C35.003 1.93043 34.8336 1.91535 34.6766 1.96257L16.2939 7.49257C16.1417 7.5475 16.0166 7.65807 15.9444 7.80151C15.8721 7.94495 15.8582 8.11035 15.9055 8.26365C15.9527 8.41694 16.0576 8.54647 16.1985 8.62557C16.3393 8.70466 16.5055 8.7273 16.6627 8.68882L34.4593 3.33382L36.1558 8.29007C36.2095 8.44704 36.3241 8.57645 36.4743 8.64982C36.6245 8.7232 36.798 8.73453 36.9566 8.68132C37.1152 8.62811 37.246 8.51472 37.3202 8.3661C37.3943 8.21747 37.4057 8.04579 37.352 7.88882L36.661 5.87007H39.6282C40.0728 5.87007 40.4341 6.22757 40.4341 6.66757V8.75007C40.4328 9.09507 40.7158 9.37507 41.0644 9.37507Z" fill="#168CE1"/>
<path d="M46.1053 18.7496C45.9378 18.7496 45.7771 18.8155 45.6587 18.9327C45.5402 19.0499 45.4737 19.2089 45.4737 19.3746C45.4737 19.5404 45.5402 19.6994 45.6587 19.8166C45.7771 19.9338 45.9378 19.9996 46.1053 19.9996C46.5486 19.9996 46.7368 20.1859 46.7368 20.6246V28.1246C46.7368 28.5634 46.5486 28.7496 46.1053 28.7496H36C35.5566 28.7496 35.3684 28.5634 35.3684 28.1246V21.8746C35.3684 21.4359 35.5566 21.2496 36 21.2496H43.5789C43.7465 21.2496 43.9071 21.1838 44.0255 21.0666C44.144 20.9494 44.2105 20.7904 44.2105 20.6246V13.1246C44.2105 11.9859 43.4665 11.2496 42.3158 11.2496H3.78947C2.232 11.2496 1.26316 10.2909 1.26316 8.74964C1.26316 7.20839 2.232 6.24964 3.78947 6.24964H10.2013L6.37895 7.49714C6.29732 7.52043 6.22129 7.55978 6.15539 7.61283C6.08949 7.66588 6.03508 7.73154 5.99542 7.80589C5.95576 7.88023 5.93167 7.96173 5.92457 8.0455C5.91748 8.12927 5.92754 8.2136 5.95415 8.29343C5.98076 8.37327 6.02337 8.44697 6.07943 8.51013C6.1355 8.57329 6.20386 8.62461 6.28043 8.66102C6.357 8.69742 6.44021 8.71817 6.52507 8.72201C6.60993 8.72586 6.6947 8.71272 6.77432 8.68339L29.6615 1.21714C29.7403 1.19137 29.8132 1.15049 29.876 1.09684C29.9388 1.04319 29.9904 0.977823 30.0277 0.904464C30.0649 0.831106 30.0873 0.751196 30.0934 0.669296C30.0995 0.587397 30.0892 0.505112 30.0632 0.427139C30.0371 0.349167 29.9958 0.277034 29.9416 0.21486C29.8874 0.152685 29.8213 0.101686 29.7472 0.064775C29.6731 0.0278637 29.5923 0.00576281 29.5095 -0.000265776C29.4268 -0.00629436 29.3436 0.00386741 29.2648 0.0296393L13.9806 5.01714C13.9516 5.01214 13.9251 4.99964 13.8947 4.99964H3.78947C1.52337 4.99964 0 6.50714 0 8.74964V36.2496C0 38.4921 1.52337 39.9996 3.78947 39.9996H42.3158C43.4665 39.9996 44.2105 39.2634 44.2105 38.1246V31.8746C44.2105 31.7089 44.144 31.5499 44.0255 31.4327C43.9071 31.3155 43.7465 31.2496 43.5789 31.2496C43.4114 31.2496 43.2508 31.3155 43.1324 31.4327C43.0139 31.5499 42.9474 31.7089 42.9474 31.8746V38.1246C42.9474 38.5634 42.7592 38.7496 42.3158 38.7496H3.78947C2.232 38.7496 1.26316 37.7909 1.26316 36.2496V11.6396C1.91116 12.1809 2.76884 12.4996 3.78947 12.4996H42.3158C42.7592 12.4996 42.9474 12.6859 42.9474 13.1246V19.9996H36C34.8493 19.9996 34.1053 20.7359 34.1053 21.8746V28.1246C34.1053 29.2634 34.8493 29.9996 36 29.9996H46.1053C47.256 29.9996 48 29.2634 48 28.1246V20.6246C48 19.4859 47.256 18.7496 46.1053 18.7496Z" fill="#168CE1"/>
<path d="M40.4214 26.25C41.119 26.25 41.6845 25.6904 41.6845 25C41.6845 24.3096 41.119 23.75 40.4214 23.75C39.7237 23.75 39.1582 24.3096 39.1582 25C39.1582 25.6904 39.7237 26.25 40.4214 26.25Z" fill="#168CE1"/>
</svg>
