<svg width="48" height="48" viewBox="0 0 48 48" fill="none" xmlns="http://www.w3.org/2000/svg">
<path d="M24 6.002C30.336 6.002 33.932 10.196 34.454 15.262H34.614C35.5827 15.2604 36.5422 15.4497 37.4377 15.8191C38.3333 16.1885 39.1472 16.7307 39.8331 17.4147C40.519 18.0988 41.0634 18.9113 41.4352 19.8058C41.807 20.7003 41.999 21.6593 42 22.628C41.9987 23.5964 41.8067 24.555 41.4349 25.4491C41.0631 26.3433 40.5188 27.1555 39.8331 27.8393C39.1475 28.5231 38.3338 29.0652 37.4387 29.4345C36.5435 29.8039 35.5844 29.9933 34.616 29.992H33.452L33.446 30H32.918C32.8768 30.1178 32.821 30.23 32.752 30.334L30.752 33.334C30.5293 33.6602 30.187 33.8854 29.7992 33.9607C29.4115 34.0361 29.0097 33.9554 28.6811 33.7364C28.3525 33.5173 28.1235 33.1774 28.0439 32.7905C27.9643 32.4037 28.0405 32.001 28.256 31.67L29.374 29.992H25.714L25.71 30H24.916C24.8747 30.1171 24.8189 30.2287 24.75 30.332L22.75 33.332C22.6437 33.5022 22.5044 33.6494 22.3402 33.7648C22.176 33.8802 21.9903 33.9615 21.7941 34.0038C21.598 34.0462 21.3953 34.0487 21.1981 34.0113C21.001 33.974 20.8133 33.8974 20.6463 33.7862C20.4792 33.6749 20.3362 33.5313 20.2257 33.3638C20.1151 33.1963 20.0393 33.0083 20.0027 32.811C19.9662 32.6137 19.9696 32.411 20.0127 32.215C20.0559 32.019 20.1379 31.8337 20.254 31.67L21.374 29.992H17.972L17.97 30H16.916C16.8741 30.1179 16.8177 30.2301 16.748 30.334L14.748 33.334C14.5253 33.6602 14.183 33.8854 13.7952 33.9607C13.4075 34.0361 13.0057 33.9554 12.6771 33.7364C12.3485 33.5173 12.1195 33.1774 12.0399 32.7905C11.9603 32.4037 12.0365 32.001 12.252 31.67L13.372 29.992C11.4184 29.9915 9.54479 29.2157 8.16262 27.835C6.78045 26.4544 6.00265 24.5816 6 22.628C6.00079 21.6591 6.1925 20.6999 6.56418 19.8052C6.93586 18.9104 7.48023 18.0977 8.16616 17.4134C8.85209 16.7292 9.66614 16.1868 10.5618 15.8173C11.4574 15.4478 12.4171 15.2584 13.386 15.26H13.546C14.07 10.16 17.662 6 24 6V6.002ZM24 8.998C19.858 8.998 16.246 12.264 16.246 16.776C16.246 17.49 15.608 18.052 14.878 18.052H13.498C10.976 18.052 8.93 20.054 8.93 22.524C8.93 24.994 10.976 26.998 13.498 26.998H34.5C37.022 26.998 39.068 24.994 39.068 22.524C39.068 20.054 37.022 18.052 34.5 18.052H33.12C32.39 18.052 31.752 17.492 31.752 16.776C31.752 12.206 28.14 8.996 23.998 8.996L24 8.998ZM14.252 37.668C14.1402 37.8318 14.0619 38.0162 14.0218 38.2105C13.9817 38.4048 13.9806 38.6051 14.0184 38.7998C14.0562 38.9945 14.1323 39.1798 14.2422 39.345C14.3522 39.5101 14.4937 39.6518 14.6588 39.7618C14.8239 39.8718 15.0091 39.948 15.2038 39.986C15.3985 40.024 15.5988 40.0229 15.7931 39.983C15.9874 39.943 16.1719 39.8649 16.3358 39.7531C16.4997 39.6414 16.6398 39.4983 16.748 39.332L18.748 36.332C18.8598 36.1682 18.9381 35.9838 18.9782 35.7895C19.0183 35.5952 19.0194 35.3949 18.9816 35.2002C18.9438 35.0055 18.8677 34.8202 18.7578 34.655C18.6478 34.4899 18.5063 34.3482 18.3412 34.2382C18.1761 34.1282 17.9909 34.052 17.7962 34.014C17.6015 33.976 17.4012 33.9771 17.2069 34.017C17.0126 34.057 16.8281 34.1351 16.6642 34.2469C16.5003 34.3586 16.3602 34.5017 16.252 34.668L14.252 37.668ZM22.668 39.748C22.337 39.5273 22.1073 39.1842 22.0293 38.7941C21.9512 38.4041 22.0314 37.999 22.252 37.668L24.252 34.668C24.3602 34.5017 24.5003 34.3586 24.6642 34.2469C24.8281 34.1351 25.0126 34.057 25.2069 34.017C25.4012 33.9771 25.6015 33.976 25.7962 34.014C25.9909 34.052 26.1761 34.1282 26.3412 34.2382C26.5063 34.3482 26.6478 34.4899 26.7578 34.655C26.8677 34.8202 26.9438 35.0055 26.9816 35.2002C27.0194 35.3949 27.0183 35.5952 26.9782 35.7895C26.9381 35.9838 26.8598 36.1682 26.748 36.332L24.748 39.332C24.5273 39.663 24.1842 39.8927 23.7941 39.9707C23.4041 40.0488 22.999 39.9686 22.668 39.748Z" fill="#C94747"/>
</svg>
