<svg width="74" height="74" viewBox="0 0 74 74" fill="none" xmlns="http://www.w3.org/2000/svg">
<g filter="url(#filter0_d_929_2009)">
<circle cx="32.5" cy="32.5" r="17.5" fill="white"/>
</g>
<path d="M38.25 32.25H29.355L32.0775 28.98C32.2048 28.8268 32.2661 28.6293 32.2478 28.431C32.2295 28.2327 32.1332 28.0498 31.98 27.9225C31.8268 27.7952 31.6294 27.7339 31.4311 27.7522C31.2327 27.7705 31.0498 27.8668 30.9225 28.02L27.1725 32.52C27.1473 32.5558 27.1247 32.5934 27.105 32.6325C27.105 32.67 27.105 32.6925 27.0525 32.73C27.0185 32.816 27.0007 32.9075 27 33C27.0007 33.0924 27.0185 33.184 27.0525 33.27C27.0525 33.3075 27.0525 33.33 27.105 33.3675C27.1247 33.4066 27.1473 33.4442 27.1725 33.48L30.9225 37.98C30.993 38.0646 31.0813 38.1327 31.1811 38.1794C31.2809 38.226 31.3898 38.2501 31.5 38.25C31.6752 38.2503 31.8451 38.1893 31.98 38.0775C32.0559 38.0145 32.1187 37.9372 32.1647 37.8499C32.2107 37.7627 32.2391 37.6672 32.2482 37.5689C32.2572 37.4707 32.2468 37.3717 32.2175 37.2775C32.1882 37.1833 32.1407 37.0957 32.0775 37.02L29.355 33.75H38.25C38.4489 33.75 38.6397 33.6709 38.7803 33.5303C38.921 33.3896 39 33.1989 39 33C39 32.8011 38.921 32.6103 38.7803 32.4696C38.6397 32.329 38.4489 32.25 38.25 32.25Z" fill="#5F5F5F"/>
<defs>
<filter id="filter0_d_929_2009" x="-1" y="-1" width="75" height="75" filterUnits="userSpaceOnUse" color-interpolation-filters="sRGB">
<feFlood flood-opacity="0" result="BackgroundImageFix"/>
<feColorMatrix in="SourceAlpha" type="matrix" values="0 0 0 0 0 0 0 0 0 0 0 0 0 0 0 0 0 0 127 0" result="hardAlpha"/>
<feOffset dx="4" dy="4"/>
<feGaussianBlur stdDeviation="10"/>
<feComposite in2="hardAlpha" operator="out"/>
<feColorMatrix type="matrix" values="0 0 0 0 0 0 0 0 0 0 0 0 0 0 0 0 0 0 0.1 0"/>
<feBlend mode="normal" in2="BackgroundImageFix" result="effect1_dropShadow_929_2009"/>
<feBlend mode="normal" in="SourceGraphic" in2="effect1_dropShadow_929_2009" result="shape"/>
</filter>
</defs>
</svg>
